<svg width="16" height="16" viewBox="0 0 16 16" fill="none" xmlns="http://www.w3.org/2000/svg">
<g id="style=regular, aliases=-">
<path id="icon" fill-rule="evenodd" clip-rule="evenodd" d="M5.01926 11.4186L4.69188 10H2.80822L2.48084 11.4186C2.3877 11.8223 1.985 12.0739 1.5814 11.9808C1.17779 11.8877 0.926111 11.485 1.01925 11.0814L2.40682 5.06856C2.55117 4.44307 3.10814 4 3.75006 4C4.39199 4 4.94896 4.44308 5.0933 5.06857L6.48084 11.0814C6.57398 11.485 6.3223 11.8877 5.91869 11.9808C5.51509 12.0739 5.11239 11.8222 5.01926 11.4186ZM3.75006 5.91871L4.34573 8.5H3.15437L3.75006 5.91871ZM14.5 4.75C14.5 4.33579 14.1643 4 13.75 4C13.3358 4 13 4.33579 13 4.75V11.25C13 11.6642 13.3358 12 13.75 12C14.1643 12 14.5 11.6642 14.5 11.25V4.75ZM8.25004 4C7.83583 4 7.50004 4.33579 7.50004 4.75V8.75V11.25C7.50004 11.6642 7.83583 12 8.25004 12C8.66426 12 9.00004 11.6642 9.00004 11.25V9.5H9.50004C11.0188 9.5 12.25 8.26878 12.25 6.75C12.25 5.23122 11.0188 4 9.50004 4H8.25004ZM9.50004 8H9.00004V5.5H9.50004C10.1904 5.5 10.75 6.05964 10.75 6.75C10.75 7.44036 10.1904 8 9.50004 8Z" fill="black"/>
</g>
</svg>
