<svg width="16" height="16" viewBox="0 0 16 16" fill="none" xmlns="http://www.w3.org/2000/svg">
<g id="style=regular, aliases=-" clip-path="url(#clip0_11_5232)">
<path id="icon" fill-rule="evenodd" clip-rule="evenodd" d="M13.5 4.75C13.5 4.33579 13.1643 4 12.75 4C12.3358 4 12 4.33579 12 4.75V11.25C12 11.6642 12.3358 12 12.75 12H15.25C15.6643 12 16 11.6642 16 11.25C16 10.8358 15.6643 10.5 15.25 10.5H13.5V4.75ZM11 8.00011C11 9.32058 10.7426 10.3141 10.2914 10.9807L11.2804 11.9697C11.5733 12.2626 11.5733 12.7375 11.2804 13.0303C10.9875 13.3232 10.5126 13.3232 10.2197 13.0303L9.08742 11.8981C8.86478 11.9661 8.62661 12.0001 8.37504 12.0001C6.80004 12.0001 5.75004 10.6668 5.75004 8.00011C5.75004 5.33344 6.80004 4.00011 8.37504 4.00011C9.95004 4.00011 11 5.33344 11 8.00011ZM9.04301 10.149C9.26515 9.82662 9.50004 9.16811 9.50004 8.00011C9.50004 6.83211 9.26515 6.17359 9.04301 5.85121C8.86798 5.59721 8.67698 5.50011 8.37504 5.50011C8.07311 5.50011 7.8821 5.59721 7.70708 5.85121C7.48494 6.17359 7.25004 6.83211 7.25004 8.00011C7.25004 9.16811 7.48494 9.82662 7.70708 10.149C7.8821 10.403 8.07311 10.5001 8.37504 10.5001C8.67698 10.5001 8.86798 10.403 9.04301 10.149ZM2.56158 4.00243C1.87299 4.00243 1.27685 4.25063 0.859797 4.71528C0.452957 5.16855 0.276504 5.7601 0.276504 6.35184C0.276504 7.08391 0.60314 7.63217 1.03582 8.01019C1.44549 8.36811 1.94381 8.5713 2.34076 8.69359C2.73865 8.81617 3.02506 8.9111 3.23005 9.06647C3.37819 9.17876 3.50009 9.33188 3.50004 9.69131C3.5 9.9801 3.39207 10.1596 3.24791 10.2797C3.08773 10.4133 2.84334 10.5024 2.56158 10.5024C2.36022 10.5024 2.12383 10.4087 1.90341 10.2092C1.68194 10.0088 1.5326 9.75028 1.48136 9.52504C1.38948 9.12114 0.987571 8.86821 0.583677 8.96009C0.179782 9.05197 -0.0731546 9.45387 0.0187264 9.85777C0.145475 10.4149 0.472053 10.9369 0.896932 11.3214C1.32287 11.7069 1.90325 12.0024 2.56158 12.0024C3.13952 12.0024 3.7393 11.8229 4.20839 11.4319C4.6935 11.0275 4.99995 10.4264 5.00004 9.6915C5.00015 8.8489 4.64744 8.25861 4.13612 7.87106C3.70233 7.54226 3.17431 7.38031 2.83031 7.2748L2.7824 7.26008C2.47331 7.16485 2.20409 7.03904 2.02273 6.88059C1.86439 6.74224 1.7765 6.58676 1.7765 6.35184C1.7765 6.0479 1.86612 5.83974 1.97609 5.71723C2.07584 5.60609 2.24724 5.50243 2.56158 5.50243C2.88339 5.50243 3.06 5.60086 3.17367 5.70835C3.30328 5.83093 3.40711 6.0211 3.47303 6.26835C3.57974 6.66859 3.9907 6.90653 4.39093 6.79982C4.79116 6.69311 5.02911 6.28216 4.9224 5.88192C4.81034 5.4616 4.59757 4.99042 4.20434 4.61853C3.79517 4.23156 3.2427 4.00243 2.56158 4.00243Z" fill="black"/>
</g>
<defs>
<clipPath id="clip0_11_5232">
<rect width="16" height="16" fill="white"/>
</clipPath>
</defs>
</svg>
