<svg width="16" height="16" viewBox="0 0 16 16" fill="none" xmlns="http://www.w3.org/2000/svg">
<g id="style=regular, aliases=-">
<path id="icon" fill-rule="evenodd" clip-rule="evenodd" d="M2.49988 11.25L2.49992 6.67228L3.93615 10.0614C4.11304 10.4789 4.52243 10.75 4.97578 10.75C5.4258 10.75 5.83286 10.4828 6.0118 10.0699L7.52508 6.57799V11.25C7.52508 11.6642 7.86087 12 8.27508 12C8.68929 12 9.02508 11.6642 9.02508 11.25V5.21798C9.02508 4.54531 8.47977 4 7.8071 4C7.32167 4 6.88258 4.28826 6.68956 4.73366L4.9796 8.67937L3.30702 4.73248C3.11885 4.28844 2.68334 4 2.20108 4C1.53771 4 0.999941 4.53776 0.999935 5.20113L0.999878 11.25C0.999874 11.6642 1.33566 12 1.74987 12C2.16408 12 2.49987 11.6642 2.49988 11.25ZM11.9999 4.75C11.9999 4.33579 11.6641 4 11.2499 4C10.8357 4 10.4999 4.33579 10.4999 4.75V11.25C10.4999 11.6642 10.8357 12 11.2499 12H14.7499C15.1641 12 15.4999 11.6642 15.4999 11.25C15.4999 10.8358 15.1641 10.5 14.7499 10.5H11.9999V4.75Z" fill="black"/>
</g>
</svg>
