<svg width="16" height="16" viewBox="0 0 16 16" fill="none" xmlns="http://www.w3.org/2000/svg">
<g id="style=regular, keywords=-" clip-path="url(#clip0_11_2590)">
<path id="icon" fill-rule="evenodd" clip-rule="evenodd" d="M4.60935 2.50294C5.59192 1.88904 6.75114 1.53014 7.99256 1.5193C9.73936 1.50406 11.3313 2.17986 12.5084 3.28977L12.5035 2.73001C12.4999 2.31581 12.8327 1.97711 13.2469 1.97349C13.6611 1.96988 13.9998 2.30272 14.0034 2.71692L14.0252 5.2168C14.0288 5.631 13.696 5.9697 13.2818 5.97332L10.7853 5.9951C10.3711 5.99872 10.0324 5.66587 10.0288 5.25168C10.0252 4.83748 10.358 4.49877 10.7722 4.49516L11.5894 4.48803C10.6731 3.56943 9.40397 3.00704 8.00565 3.01925C7.04861 3.0276 6.15884 3.30354 5.40415 3.77506C5.05287 3.99454 4.59017 3.88768 4.37069 3.5364C4.15121 3.18511 4.25807 2.72241 4.60935 2.50294ZM13.7069 11.2191C14.3182 10.1386 14.587 8.95522 14.5466 7.79735C14.5322 7.38338 14.1849 7.0595 13.7709 7.07393C13.357 7.08836 13.0331 7.43564 13.0475 7.8496C13.0785 8.73894 12.8726 9.64748 12.4013 10.4805C11.7127 11.6976 10.5911 12.5155 9.33746 12.8497L9.73987 12.1384C9.94384 11.7779 9.81693 11.3203 9.45642 11.1163C9.09591 10.9124 8.6383 11.0393 8.43434 11.3998L7.20495 13.5727C7.00098 13.9332 7.12788 14.3908 7.4884 14.5948L9.66426 15.8258C10.0248 16.0298 10.4824 15.9029 10.6863 15.5424C10.8903 15.1819 10.7634 14.7243 10.4029 14.5203L9.91569 14.2447C11.4654 13.7803 12.8467 12.7395 13.7069 11.2191ZM2.4493 11.3177C3.0794 12.3874 3.96983 13.2119 4.99276 13.7559C5.35847 13.9503 5.81261 13.8115 6.00709 13.4458C6.20157 13.0801 6.06276 12.626 5.69705 12.4315C4.91135 12.0137 4.2275 11.3811 3.74175 10.5564C3.03202 9.35155 2.88448 7.97123 3.22189 6.71845L3.63665 7.42257C3.84688 7.77947 4.30663 7.89837 4.66353 7.68814C5.02042 7.47791 5.13932 7.01816 4.92909 6.66126L3.66197 4.51011C3.45174 4.15321 2.99199 4.03431 2.63509 4.24454L0.481043 5.51338C0.124145 5.72361 0.00524593 6.18335 0.215475 6.54025C0.425705 6.89715 0.885452 7.01605 1.24235 6.80582L1.72467 6.52171C1.35198 8.096 1.5627 9.81258 2.4493 11.3177Z" fill="black"/>
</g>
<defs>
<clipPath id="clip0_11_2590">
<rect width="16" height="16" fill="white"/>
</clipPath>
</defs>
</svg>
