<svg width="16" height="16" viewBox="0 0 16 16" fill="none" xmlns="http://www.w3.org/2000/svg">
<g id="style=regular, keywords=-">
<path id="icon" fill-rule="evenodd" clip-rule="evenodd" d="M7.00068 9L7.00068 11.6645C7.00068 11.8498 6.85048 12 6.66521 12C6.58673 12 6.51073 11.9725 6.45045 11.9222L1.72917 7.98785C1.58439 7.8672 1.50068 7.68847 1.50068 7.5C1.50068 7.31153 1.58439 7.1328 1.72917 7.01215L6.45045 3.07775C6.51074 3.02751 6.58673 3 6.66521 3C6.85048 3 7.00068 3.15019 7.00068 3.33547L7.00068 6H8.50068C10.0841 6 11.6824 6.57134 12.7412 7.69194C13.6403 8.64341 14.2897 10.1383 14.0507 12.4146C13.4017 11.3893 12.6856 10.5783 11.8496 10.0015C10.8022 9.27884 9.67728 9 8.50068 9H7.00068ZM10.0007 10.7313C11.1617 11.1271 12.1648 12.0681 13.1511 13.8371C13.3745 14.2376 13.7904 14.5 14.249 14.5C14.8006 14.4999 15.2894 14.1245 15.3923 13.5826C16.5983 7.23708 12.3214 4.5 8.50068 4.5L8.50068 3.33547C8.50068 2.32177 7.67891 1.5 6.66521 1.5C6.23583 1.5 5.82003 1.65054 5.49017 1.92542L0.768898 5.85982C0.282125 6.26546 0.000677109 6.86636 0.000677109 7.5C0.000677109 8.13364 0.282124 8.73454 0.768898 9.14018L5.49017 13.0746C5.82003 13.3495 6.23583 13.5 6.66521 13.5C7.67891 13.5 8.50068 12.6782 8.50068 11.6645L8.50068 10.5C9.03295 10.5 9.52981 10.5708 10.0007 10.7313Z" fill="black"/>
</g>
</svg>
