<svg width="16" height="16" viewBox="0 0 16 16" fill="none" xmlns="http://www.w3.org/2000/svg">
<g id="style=regular, keywords=-" clip-path="url(#clip0_11_2735)">
<path id="icon" fill-rule="evenodd" clip-rule="evenodd" d="M11.3906 2.50294C10.4081 1.88904 9.24886 1.53014 8.00744 1.5193C6.26064 1.50406 4.66867 2.17986 3.49165 3.28977L3.49653 2.73001C3.50015 2.31581 3.1673 1.97711 2.7531 1.97349C2.33891 1.96988 2.0002 2.30272 1.99659 2.71692L1.97477 5.2168C1.97116 5.631 2.304 5.9697 2.7182 5.97332L5.21471 5.9951C5.62891 5.99872 5.96761 5.66587 5.97123 5.25168C5.97484 4.83748 5.642 4.49877 5.2278 4.49516L4.41064 4.48803C5.32687 3.56943 6.59603 3.00704 7.99435 3.01925C8.95139 3.0276 9.84116 3.30354 10.5958 3.77506C10.9471 3.99454 11.4098 3.88768 11.6293 3.5364C11.8488 3.18511 11.7419 2.72241 11.3906 2.50294ZM2.29314 11.2191C1.68181 10.1386 1.41303 8.95522 1.45339 7.79735C1.46782 7.38338 1.8151 7.0595 2.22906 7.07393C2.64303 7.08836 2.96691 7.43564 2.95248 7.8496C2.92148 8.73894 3.12739 9.64748 3.59868 10.4805C4.28727 11.6976 5.40889 12.5155 6.66254 12.8497L6.26013 12.1384C6.05616 11.7779 6.18307 11.3203 6.54358 11.1163C6.90409 10.9124 7.3617 11.0393 7.56566 11.3998L8.79505 13.5727C8.99902 13.9332 8.87212 14.3908 8.5116 14.5948L6.33574 15.8258C5.97522 16.0298 5.51762 15.9029 5.31365 15.5424C5.10968 15.1819 5.23659 14.7243 5.5971 14.5203L6.08431 14.2447C4.53459 13.7803 3.15334 12.7395 2.29314 11.2191ZM13.5507 11.3177C12.9206 12.3874 12.0302 13.2119 11.0072 13.7559C10.6415 13.9503 10.1874 13.8115 9.99291 13.4458C9.79843 13.0801 9.93724 12.626 10.303 12.4315C11.0886 12.0137 11.7725 11.3811 12.2583 10.5564C12.968 9.35155 13.1155 7.97123 12.7781 6.71845L12.3633 7.42257C12.1531 7.77947 11.6934 7.89837 11.3365 7.68814C10.9796 7.47791 10.8607 7.01816 11.0709 6.66126L12.338 4.51011C12.5483 4.15321 13.008 4.03431 13.3649 4.24454L15.519 5.51338C15.8759 5.72361 15.9948 6.18335 15.7845 6.54025C15.5743 6.89715 15.1145 7.01605 14.7576 6.80582L14.2753 6.52171C14.648 8.096 14.4373 9.81258 13.5507 11.3177Z" fill="black"/>
</g>
<defs>
<clipPath id="clip0_11_2735">
<rect width="16" height="16" fill="white"/>
</clipPath>
</defs>
</svg>
