<svg width="16" height="16" viewBox="0 0 16 16" fill="none" xmlns="http://www.w3.org/2000/svg">
<g id="style=regular, keywords=-" clip-path="url(#clip0_11_2754)">
<path id="icon" fill-rule="evenodd" clip-rule="evenodd" d="M8.00744 1.5193C9.24887 1.53014 10.4081 1.88904 11.3906 2.50294C11.7419 2.72241 11.8488 3.18511 11.6293 3.5364C11.4098 3.88768 10.9471 3.99453 10.5958 3.77506C9.84116 3.30354 8.95139 3.0276 7.99435 3.01925C6.59603 3.00704 5.32687 3.56943 4.41064 4.48803L5.2278 4.49516C5.642 4.49877 5.97484 4.83748 5.97123 5.25168C5.96761 5.66587 5.62891 5.99872 5.21471 5.9951L2.7182 5.97332C2.304 5.9697 1.97116 5.631 1.97477 5.2168L1.99659 2.71692C2.0002 2.30272 2.33891 1.96988 2.75311 1.97349C3.1673 1.97711 3.50015 2.31581 3.49653 2.73001L3.49165 3.28977C4.66867 2.17986 6.26064 1.50406 8.00744 1.5193ZM1.45339 7.79735C1.41303 8.95522 1.68181 10.1386 2.29314 11.2191C3.15334 12.7395 4.53459 13.7803 6.08431 14.2447L5.5971 14.5203C5.23659 14.7243 5.10968 15.1819 5.31365 15.5424C5.51762 15.9029 5.97522 16.0298 6.33574 15.8258L8.5116 14.5948C8.87212 14.3908 8.99902 13.9332 8.79505 13.5727L7.56566 11.3998C7.36169 11.0393 6.90409 10.9124 6.54358 11.1163C6.18307 11.3203 6.05616 11.7779 6.26013 12.1384L6.66254 12.8497C5.40889 12.5155 4.28727 11.6976 3.59868 10.4805C3.12739 9.64748 2.92148 8.73894 2.95248 7.8496C2.96691 7.43564 2.64303 7.08836 2.22906 7.07393C1.8151 7.0595 1.46782 7.38338 1.45339 7.79735ZM11.0072 13.7559C12.0302 13.2119 12.9206 12.3874 13.5507 11.3177C14.4373 9.81258 14.648 8.09599 14.2753 6.52171L14.7577 6.80582C15.1145 7.01605 15.5743 6.89715 15.7845 6.54025C15.9948 6.18335 15.8759 5.7236 15.519 5.51337L13.3649 4.24454C13.008 4.03431 12.5483 4.15321 12.338 4.51011L11.0709 6.66126C10.8607 7.01816 10.9796 7.47791 11.3365 7.68814C11.6934 7.89837 12.1531 7.77947 12.3633 7.42257L12.7781 6.71845C13.1155 7.97123 12.968 9.35155 12.2583 10.5564C11.7725 11.3811 11.0886 12.0137 10.303 12.4315C9.93724 12.626 9.79843 13.0801 9.99291 13.4458C10.1874 13.8115 10.6415 13.9503 11.0072 13.7559ZM7.00297 5.28356C7.15127 4.85985 7.55115 4.57614 8.00007 4.57614C8.44898 4.57614 8.84887 4.85985 8.99717 5.28356L10.4471 9.42613C10.5839 9.81709 10.3779 10.2449 9.98695 10.3818C9.59599 10.5186 9.16813 10.3126 9.03129 9.92166L8.89893 9.54349L7.1012 9.54349L6.96884 9.92166C6.832 10.3126 6.40414 10.5186 6.01318 10.3818C5.62222 10.2449 5.41622 9.81709 5.55305 9.42613L7.00297 5.28356ZM8.00007 6.97533L8.37393 8.04349L7.62621 8.04349L8.00007 6.97533Z" fill="black"/>
</g>
<defs>
<clipPath id="clip0_11_2754">
<rect width="16" height="16" fill="white"/>
</clipPath>
</defs>
</svg>
