<svg width="16" height="16" viewBox="0 0 16 16" fill="none" xmlns="http://www.w3.org/2000/svg">
<g id="style=regular, keywords=share">
<path id="icon" fill-rule="evenodd" clip-rule="evenodd" d="M8.99932 9L8.99932 11.6645C8.99932 11.8498 9.14952 12 9.33479 12C9.41327 12 9.48927 11.9725 9.54955 11.9222L14.2708 7.98785C14.4156 7.8672 14.4993 7.68847 14.4993 7.5C14.4993 7.31153 14.4156 7.1328 14.2708 7.01215L9.54955 3.07775C9.48926 3.02751 9.41327 3 9.33479 3C9.14952 3 8.99932 3.15019 8.99932 3.33547L8.99932 6H7.49932C5.91595 6 4.31763 6.57134 3.25877 7.69194C2.35972 8.64341 1.71034 10.1383 1.9493 12.4146C2.59831 11.3893 3.31442 10.5783 4.15035 10.0015C5.1978 9.27884 6.32272 9 7.49932 9H8.99932ZM5.99932 10.7313C4.83826 11.1271 3.83521 12.0681 2.84887 13.8371C2.62553 14.2376 2.20963 14.5 1.75103 14.5C1.19943 14.4999 0.710633 14.1245 0.607652 13.5826C-0.598258 7.23708 3.67862 4.5 7.49932 4.5L7.49932 3.33547C7.49932 2.32177 8.32109 1.5 9.33479 1.5C9.76417 1.5 10.18 1.65054 10.5098 1.92542L15.2311 5.85982C15.7179 6.26546 15.9993 6.86636 15.9993 7.5C15.9993 8.13364 15.7179 8.73454 15.2311 9.14018L10.5098 13.0746C10.18 13.3495 9.76417 13.5 9.33479 13.5C8.32109 13.5 7.49932 12.6782 7.49932 11.6645L7.49932 10.5C6.96705 10.5 6.47019 10.5708 5.99932 10.7313Z" fill="black"/>
</g>
</svg>
