<svg width="16" height="16" viewBox="0 0 16 16" fill="none" xmlns="http://www.w3.org/2000/svg">
<g id="style=regular, keywords=refresh">
<path id="icon" fill-rule="evenodd" clip-rule="evenodd" d="M7.99997 1.5C11.3015 1.5 14.027 3.96074 14.4446 7.14851C14.4984 7.55921 14.2091 7.93577 13.7984 7.98957C13.3877 8.04337 13.0111 7.75404 12.9573 7.34333C12.6363 4.89253 10.5385 3 7.99997 3C6.60159 3 5.33739 3.57344 4.4292 4.5H5.74998C6.16419 4.5 6.49998 4.83579 6.49998 5.25C6.49998 5.66421 6.16419 6 5.74998 6H2.74998C2.33576 6 1.99998 5.66421 1.99998 5.25V2.25C1.99998 1.83579 2.33576 1.5 2.74998 1.5C3.16419 1.5 3.49998 1.83579 3.49998 2.25V3.30963C4.66725 2.1896 6.25319 1.5 7.99997 1.5ZM13.25 14.5C13.6642 14.5 14 14.1642 14 13.75L14 10.75C14 10.3358 13.6642 10 13.25 10H10.25C9.83576 10 9.49998 10.3358 9.49998 10.75C9.49998 11.1642 9.83576 11.5 10.25 11.5H11.5707C10.6626 12.4266 9.39836 13 7.99998 13C5.46141 13 3.36367 11.1075 3.04263 8.65667C2.98884 8.24596 2.61228 7.95663 2.20158 8.01043C1.79087 8.06423 1.50154 8.44079 1.55534 8.85149C1.97291 12.0393 4.69848 14.5 7.99998 14.5C9.74677 14.5 11.3327 13.8104 12.5 12.6904L12.5 13.75C12.5 14.1642 12.8358 14.5 13.25 14.5Z" fill="black"/>
</g>
</svg>
