<svg width="16" height="16" viewBox="0 0 16 16" fill="none" xmlns="http://www.w3.org/2000/svg">
<g id="style=icon, keywords=avatar">
<rect width="16" height="16" rx="8" fill="#2F89D5"/>
<rect x="0.5" y="0.5" width="15" height="15" rx="7.5" stroke="black" stroke-opacity="0.1"/>
<g id="person" clip-path="url(#clip0_300_2)">
<path id="icon" fill-rule="evenodd" clip-rule="evenodd" d="M9.25 5.8125C9.25 6.50286 8.69035 7.0625 8 7.0625C7.30964 7.0625 6.75 6.50286 6.75 5.8125C6.75 5.12214 7.30964 4.5625 8 4.5625C8.69035 4.5625 9.25 5.12214 9.25 5.8125ZM10.1875 5.8125C10.1875 7.02062 9.20812 8 8 8C6.79188 8 5.8125 7.02062 5.8125 5.8125C5.8125 4.60438 6.79188 3.625 8 3.625C9.20812 3.625 10.1875 4.60438 10.1875 5.8125ZM4.5625 10.8125C4.5625 10.6847 4.70017 10.3069 5.38722 9.90079C6.02345 9.52469 6.94987 9.25 8 9.25C9.05013 9.25 9.97655 9.52469 10.6128 9.90079C11.2998 10.3069 11.4375 10.6847 11.4375 10.8125C11.4375 11.1577 11.1577 11.4375 10.8125 11.4375H5.1875C4.84232 11.4375 4.5625 11.1577 4.5625 10.8125ZM8 8.3125C5.59375 8.3125 3.625 9.5625 3.625 10.8125C3.625 11.6754 4.32456 12.375 5.1875 12.375H10.8125C11.6754 12.375 12.375 11.6754 12.375 10.8125C12.375 9.5625 10.4062 8.3125 8 8.3125Z" fill="#BDE1FF"/>
</g>
</g>
<defs>
<clipPath id="clip0_300_2">
<rect width="10" height="10" fill="white" transform="translate(3 3)"/>
</clipPath>
</defs>
</svg>
