<svg width="16" height="16" viewBox="0 0 16 16" fill="none" xmlns="http://www.w3.org/2000/svg">
<g id="style=regular, keywords=notify notification mute">
<path id="Subtract" d="M1.96973 1.96973C2.26262 1.67683 2.73738 1.67683 3.03027 1.96973L14.0303 12.9697C14.3232 13.2626 14.3232 13.7374 14.0303 14.0303C13.7374 14.3232 13.2626 14.3232 12.9697 14.0303L12.0127 13.0742C11.3328 13.2285 10.6459 13.3431 9.95605 13.418C9.76388 14.3219 8.96124 15 8 15C7.03876 15 6.23612 14.3219 6.04395 13.418C5.33239 13.3407 4.62374 13.2213 3.92285 13.0596L3.10156 12.8701C2.16414 12.6537 1.5002 11.8185 1.5 10.8564C1.5 10.3084 1.71791 9.78209 2.10547 9.39453L2.29883 9.20117C2.75579 8.74421 3.06754 8.16199 3.19434 7.52832L3.74023 4.80078L1.96973 3.03027C1.67683 2.73738 1.67683 2.26262 1.96973 1.96973ZM4.66504 7.82227C4.48019 8.74639 4.02578 9.59532 3.35938 10.2617L3.16602 10.4551C3.05976 10.5613 3 10.7062 3 10.8564C3.0002 11.1201 3.18252 11.3489 3.43945 11.4082L4.26074 11.5977C6.38851 12.0886 8.58894 12.1551 10.7363 11.7969L5.01465 6.0752L4.66504 7.82227ZM8 1C10.035 1 11.7873 2.43624 12.1865 4.43164L12.8057 7.52832C12.9325 8.16199 13.2442 8.74421 13.7012 9.20117L13.8945 9.39453C14.2821 9.78209 14.5 10.3084 14.5 10.8564C14.5 10.9935 14.4868 11.1283 14.4609 11.2588L11.4365 8.23438C11.3967 8.09899 11.3628 7.96144 11.335 7.82227L10.7158 4.72656C10.4569 3.43212 9.32008 2.5 8 2.5C7.36148 2.5 6.76609 2.71825 6.29199 3.08984L5.22559 2.02441C5.97756 1.38177 6.95146 1 8 1Z" fill="black"/>
</g>
</svg>
