<svg width="16" height="16" viewBox="0 0 16 16" fill="none" xmlns="http://www.w3.org/2000/svg">
<g id="style=regular, keywords=notify notification">
<path id="dot" fill-rule="evenodd" clip-rule="evenodd" d="M12.5 5.5C13.6046 5.5 14.5 4.60457 14.5 3.5C14.5 2.39543 13.6046 1.5 12.5 1.5C11.3954 1.5 10.5 2.39543 10.5 3.5C10.5 4.60457 11.3954 5.5 12.5 5.5Z" fill="#C10033"/>
<path id="Subtract" d="M8 1C8.41881 1 8.82633 1.06126 9.21289 1.17578C9.60999 1.29344 9.83632 1.71032 9.71875 2.10742C9.60108 2.50456 9.18425 2.73093 8.78711 2.61328C8.53715 2.53922 8.2728 2.5 8 2.5C6.67992 2.5 5.54307 3.43212 5.28418 4.72656L4.66504 7.82227C4.48019 8.74639 4.02578 9.59531 3.35938 10.2617L3.16602 10.4551C3.05976 10.5613 3 10.7062 3 10.8564C3.0002 11.1201 3.18252 11.3489 3.43945 11.4082L4.26074 11.5977C6.72125 12.1654 9.27874 12.1654 11.7393 11.5977L12.5605 11.4082C12.8175 11.3489 12.9998 11.1201 13 10.8564C13 10.7062 12.9402 10.5613 12.834 10.4551L12.6406 10.2617C11.9742 9.59531 11.5198 8.74639 11.335 7.82227L11.2676 7.48438C11.1865 7.07833 11.4495 6.68384 11.8555 6.60254C12.2616 6.52131 12.657 6.78426 12.7383 7.19043L12.8057 7.52832C12.9325 8.16199 13.2442 8.74421 13.7012 9.20117L13.8945 9.39453C14.2821 9.78209 14.5 10.3084 14.5 10.8564C14.4998 11.8185 13.8359 12.6537 12.8984 12.8701L12.0771 13.0596C11.3763 13.2213 10.6676 13.3407 9.95605 13.418C9.76388 14.3219 8.96124 15 8 15C7.03876 15 6.23612 14.3219 6.04395 13.418C5.33239 13.3407 4.62374 13.2213 3.92285 13.0596L3.10156 12.8701C2.16414 12.6537 1.5002 11.8185 1.5 10.8564C1.5 10.3084 1.71791 9.78209 2.10547 9.39453L2.29883 9.20117C2.75578 8.74422 3.06754 8.16199 3.19434 7.52832L3.81348 4.43164C4.21273 2.43624 5.96502 1 8 1Z" fill="black"/>
</g>
</svg>
