<svg width="16" height="16" viewBox="0 0 16 16" fill="none" xmlns="http://www.w3.org/2000/svg">
<g id="style=regular, keywords=-">
<path id="icon" fill-rule="evenodd" clip-rule="evenodd" d="M11.6152 4.88752C12.4288 4.51289 12.5 4.17425 12.5 4C12.5 3.82575 12.4288 3.48711 11.6152 3.11248C10.7988 2.73654 9.53779 2.5 8 2.5C6.46221 2.5 5.20116 2.73654 4.38478 3.11248C3.57123 3.48711 3.5 3.82575 3.5 4C3.5 4.17425 3.57123 4.51289 4.38478 4.88752C5.20116 5.26346 6.46221 5.5 8 5.5C9.53779 5.5 10.7988 5.26346 11.6152 4.88752ZM8 7C9.68806 7 11.2133 6.74049 12.3036 6.22148C12.2779 6.36555 12.2497 6.50921 12.219 6.65241L11.0385 12.1615C11.0337 12.1762 11.0219 12.2097 11.0001 12.2563C10.9523 12.3587 10.8591 12.5196 10.6893 12.6893C10.3835 12.9952 9.65913 13.5 8 13.5C6.34087 13.5 5.61649 12.9952 5.31066 12.6893C5.14087 12.5196 5.04769 12.3587 4.9999 12.2563C4.97815 12.2097 4.96633 12.1762 4.96153 12.1615L4.94012 12.0617C5.04874 12.0437 5.15852 12.0226 5.26941 11.9984C6.78788 11.6667 8.55443 10.7453 10.4912 9.06677C10.8042 8.79548 10.8381 8.32182 10.5668 8.0088C10.2955 7.69579 9.82183 7.66195 9.50881 7.93323C7.69559 9.50469 6.14966 10.2708 4.94937 10.5329C4.83806 10.5572 4.73008 10.5772 4.62542 10.593L3.781 6.65241C3.75031 6.50921 3.72213 6.36555 3.69645 6.22148C4.78669 6.74049 6.31194 7 8 7ZM3.07057 10.496L2.37325 7.24185C2.09395 7.66778 1.93881 8.08793 1.88261 8.46885C1.77624 9.18979 2.01312 9.79168 2.47495 10.1695C2.63329 10.2991 2.83127 10.4127 3.07057 10.496ZM2.06115 5.31448C2.02043 4.87781 2 4.43917 2 4C2 2 4.68629 1 8 1C11.3137 1 14 2 14 4C14 4.99721 13.8947 5.99163 13.6857 6.9667L12.5 12.5C12.5 12.5 12 15 8 15C4 15 3.5 12.5 3.5 12.5L3.41551 12.1057C2.6799 12.0146 2.03785 11.75 1.52509 11.3305C0.611909 10.5833 0.223792 9.43521 0.398673 8.2499C0.549067 7.23057 1.10731 6.20125 2.06115 5.31448Z" fill="black"/>
</g>
</svg>
