<svg width="16" height="16" viewBox="0 0 16 16" fill="none" xmlns="http://www.w3.org/2000/svg">
<g id="style=regular, keywords=-" clip-path="url(#clip0_11_1375)">
<path id="icon" fill-rule="evenodd" clip-rule="evenodd" d="M5.86479 0.0310824C6.26489 -0.076124 6.67614 0.161313 6.78335 0.561412L7.31414 2.54235C7.53883 2.5144 7.76773 2.5 7.99999 2.5C8.59254 2.5 9.16319 2.59371 9.69796 2.76711C10.1528 2.29425 10.792 2 11.4999 2C12.8806 2 13.9999 3.11929 13.9999 4.5C13.9999 5.20791 13.7057 5.8471 13.2329 6.30194C13.4063 6.83673 13.5 7.40742 13.5 8C13.5 8.2323 13.4856 8.46124 13.4576 8.68596L15.4385 9.21673C15.8386 9.32393 16.076 9.73519 15.9688 10.1353C15.8616 10.5354 15.4503 10.7728 15.0502 10.6656L13.0702 10.1351C12.8907 10.5609 12.6591 10.9594 12.3833 11.3226L13.8337 12.7729C14.1266 13.0658 14.1266 13.5407 13.8337 13.8336C13.5408 14.1265 13.0659 14.1265 12.773 13.8336L11.3227 12.3833C10.9595 12.659 10.5609 12.8907 10.1351 13.0702L10.6656 15.0503C10.7728 15.4504 10.5354 15.8617 10.1353 15.9689C9.7352 16.0761 9.32395 15.8386 9.21674 15.4385L8.68597 13.4576C8.46123 13.4856 8.23229 13.5 7.99999 13.5C4.96242 13.5 2.49999 11.0376 2.49999 8C2.49999 7.76774 2.51439 7.53883 2.54234 7.31413L0.561351 6.78333C0.161252 6.67612 -0.076185 6.26487 0.0310213 5.86477C0.138228 5.46467 0.54948 5.22723 0.94958 5.33444L2.92973 5.86502C3.10929 5.43911 3.34095 5.04054 3.61672 4.67731L2.16641 3.227C1.87352 2.93411 1.87352 2.45923 2.16641 2.16634C2.45931 1.87345 2.93418 1.87345 3.22708 2.16634L4.6774 3.61666C5.04061 3.34091 5.43915 3.10928 5.86502 2.92974L5.33446 0.949641C5.22725 0.549541 5.46469 0.138289 5.86479 0.0310824ZM7.99999 12C10.2091 12 12 10.2091 12 8C12 5.79086 10.2091 4 7.99999 4C5.79085 4 3.99999 5.79086 3.99999 8C3.99999 8.83353 4.25494 9.60751 4.69111 10.2482L8.41941 6.51992C8.7123 6.22703 9.18717 6.22703 9.48007 6.51992C9.77296 6.81282 9.77296 7.28769 9.48007 7.58058L5.75177 11.3089C6.39248 11.7451 7.16646 12 7.99999 12Z" fill="black"/>
</g>
<defs>
<clipPath id="clip0_11_1375">
<rect width="16" height="16" fill="white"/>
</clipPath>
</defs>
</svg>
