<svg width="16" height="16" viewBox="0 0 16 16" fill="none" xmlns="http://www.w3.org/2000/svg">
<g id="style=regular, keywords=fruit" clip-path="url(#clip0_11_3269)">
<path id="icon" fill-rule="evenodd" clip-rule="evenodd" d="M7.71062 0.058073C6.08888 0.734015 4.95112 1.78194 4.29453 3.09814C4.28363 3.11997 4.27288 3.14186 4.26228 3.16379C3.88517 3.94376 3.68567 4.79316 3.63839 5.68022C3.61211 6.17342 3.63288 6.67826 3.69636 7.18928C3.69682 7.19301 3.69729 7.19674 3.69775 7.20047C3.69841 7.20567 3.69906 7.21088 3.69972 7.21608C2.12889 7.75575 1 9.24604 1 11C1 13.2091 2.79086 15 5 15C6.00387 15 6.92137 14.6302 7.6237 14.0194C7.88735 13.7901 8.12067 13.5268 8.31686 13.2364C8.35522 13.1797 8.39215 13.1219 8.42761 13.0631C8.74528 13.3301 9.10507 13.5486 9.4956 13.7073C9.91296 13.8768 10.3654 13.9779 10.839 13.9966C10.8924 13.9987 10.9461 13.9998 11 13.9998C13.2091 13.9998 15 12.2089 15 9.9998C15 8.71242 14.3918 7.56708 13.4471 6.83543C12.7707 6.31158 11.9218 5.9998 11 5.9998C10.9436 5.9998 10.8874 6.00097 10.8316 6.00328C10.4032 6.02102 9.99227 6.10613 9.60902 6.24828C9.60899 6.24828 9.60905 6.24829 9.60902 6.24828C9.3783 6.17299 9.16619 6.08352 8.9725 5.98177C8.94322 5.96639 8.91436 5.95073 8.88592 5.93479C8.87805 5.93038 8.87021 5.92595 8.86241 5.9215C8.70908 5.83406 8.56807 5.73855 8.43916 5.636C8.06743 5.34027 7.79638 4.98594 7.62091 4.59746C7.31807 3.92697 7.26585 3.07825 7.573 2.1205C7.57292 2.12077 7.57309 2.12024 7.573 2.1205C7.7038 2.48197 7.86459 2.81321 8.05291 3.1155C8.27318 3.4691 8.53147 3.78201 8.82465 4.05376C9.07752 4.28815 9.35635 4.49192 9.65914 4.66477C9.6716 4.67188 9.68409 4.67895 9.69663 4.68595C9.8149 4.75204 9.93582 4.81295 10.0592 4.86884C10.3594 5.00489 10.6741 5.11125 11 5.1904C11.3429 5.27367 11.6982 5.32683 12.0622 5.35277C12.4218 5.37839 12.7898 5.37745 13.1628 5.35275C13.1707 5.35222 13.1786 5.35169 13.1865 5.35114C13.4004 5.33641 13.6158 5.31389 13.8322 5.28411C13.9291 5.27078 14.0261 5.25599 14.1233 5.23979C14.5319 5.1717 14.8079 4.78528 14.7398 4.3767C14.68 4.0177 14.594 3.68407 14.484 3.37472C14.4805 3.36489 14.477 3.35509 14.4735 3.34532C14.2567 2.74711 13.9491 2.24048 13.5653 1.81745C13.5463 1.79656 13.5272 1.77588 13.5079 1.75543C13.1517 1.37794 12.7389 1.07565 12.2884 0.837156C11.0684 0.191275 9.55297 0.00140075 8.01711 5.0207e-06C7.91538 -0.00237144 7.8106 0.0164143 7.71062 0.058073ZM9.31513 2.30485C9.5553 2.69477 9.8513 2.99658 10.1862 3.22637C10.2649 3.28033 10.3456 3.33032 10.4284 3.37654C10.4351 3.3803 10.4419 3.38405 10.4486 3.38777C10.6753 3.51229 10.924 3.61314 11.1927 3.6899C11.7386 3.84584 12.3674 3.90241 13.0634 3.8562C13.0522 3.82528 13.0407 3.79478 13.0289 3.76468C12.7664 3.09715 12.3506 2.63288 11.825 2.30077C11.7479 2.25202 11.6683 2.20612 11.5866 2.16284C11.3695 2.04792 11.1334 1.94988 10.8796 1.86727C10.3311 1.68871 9.7 1.58219 9 1.53298C8.98515 1.53193 8.97028 1.53092 8.95537 1.52993C8.96083 1.54599 8.96636 1.56195 8.97196 1.57781C8.9757 1.58842 8.97947 1.59897 8.98327 1.60948C9.07659 1.86753 9.18804 2.09853 9.31513 2.30485ZM5.86664 3.3629C5.86645 3.56362 5.87848 3.76188 5.90282 3.95697C5.95363 4.36421 6.05807 4.75762 6.21695 5.1307C6.22895 5.15889 6.24127 5.18696 6.25389 5.21491C6.25865 5.22546 6.26346 5.23598 6.26831 5.24648C6.34285 5.40798 6.42706 5.56369 6.52054 5.71325C6.55631 5.77049 6.59344 5.82683 6.63191 5.88225C6.72853 6.02146 6.83358 6.15487 6.94668 6.28216C7.16212 6.52461 7.40681 6.74487 7.67826 6.94075C7.81836 7.04186 7.9656 7.13647 8.11963 7.22429C8.11961 7.2243 8.11964 7.22427 8.11963 7.22429C7.91181 7.43991 7.72794 7.67885 7.57239 7.93673C7.25472 7.6697 6.89493 7.45116 6.50441 7.29254C6.2278 7.18018 5.93577 7.09789 5.63238 7.0497C5.49248 7.02748 5.35017 7.01252 5.20584 7.0052C5.19886 7.00485 5.19184 7.00451 5.18486 7.00419C5.15548 6.76793 5.13733 6.53656 5.13038 6.31048C5.1242 6.10891 5.12691 5.91156 5.13854 5.71869C5.18009 5.02796 5.33579 4.39531 5.60509 3.83257C5.60763 3.82728 5.61017 3.82199 5.61272 3.81671C5.68669 3.66372 5.76988 3.51431 5.86275 3.36897C5.86404 3.36694 5.86534 3.36492 5.86664 3.3629ZM8.60795 9.27082C8.63516 9.32749 8.66108 9.3849 8.68566 9.44301C8.88807 9.92157 9 10.4477 9 11C9 11.1569 8.99096 11.3117 8.97338 11.4639C9.42757 12.0915 10.1661 12.4998 11 12.4998C12.3807 12.4998 13.5 11.3805 13.5 9.9998C13.5 8.61909 12.3807 7.4998 11 7.4998C10.2941 7.4998 9.65654 7.79236 9.20194 8.26284C9.20117 8.26363 9.20041 8.26443 9.19965 8.26523C9.18417 8.28128 9.16891 8.29754 9.15387 8.314C8.90628 8.58498 8.71757 8.91067 8.60795 9.27082ZM7.49973 11.0371C7.49991 11.0248 7.5 11.0124 7.5 11C7.5 9.61928 6.38071 8.49999 5 8.49999C4.0164 8.49999 3.16547 9.06803 2.75736 9.89395C2.59259 10.2274 2.5 10.6029 2.5 11C2.5 12.3807 3.61929 13.5 5 13.5C5.04754 13.5 5.09478 13.4987 5.14168 13.4961C6.44424 13.4233 7.48056 12.3533 7.49973 11.0371Z" fill="black"/>
</g>
<defs>
<clipPath id="clip0_11_3269">
<rect width="16" height="16" fill="white"/>
</clipPath>
</defs>
</svg>
