<svg width="16" height="16" viewBox="0 0 16 16" fill="none" xmlns="http://www.w3.org/2000/svg">
<g id="style=regular, keywords=arrows full screen unwrap">
<path id="icon" fill-rule="evenodd" clip-rule="evenodd" d="M7.75364 2.00366C7.33943 2.00366 7.00364 2.33945 7.00364 2.75366C7.00364 3.16788 7.33943 3.50366 7.75364 3.50366L12.5037 3.50366L12.5037 8.24634C12.5037 8.66055 12.8395 8.99634 13.2537 8.99633C13.6679 8.99633 14.0037 8.66055 14.0037 8.24633L14.0037 2.75366C14.0037 2.33945 13.6679 2.00366 13.2537 2.00366H7.75364ZM8.24625 13.9963C8.66047 13.9963 8.99625 13.6605 8.99625 13.2463C8.99625 12.8321 8.66047 12.4963 8.24625 12.4963L3.49622 12.4963V7.75371C3.49622 7.3395 3.16043 7.00371 2.74622 7.00371C2.332 7.00371 1.99622 7.3395 1.99622 7.75371V13.2463C1.99622 13.4452 2.07523 13.636 2.21589 13.7766C2.35654 13.9173 2.5473 13.9963 2.74622 13.9963L8.24625 13.9963Z" fill="black"/>
</g>
</svg>
