<svg width="16" height="16" viewBox="0 0 16 16" fill="none" xmlns="http://www.w3.org/2000/svg">
<g id="style=regular, keywords=arrows unwrap" clip-path="url(#clip0_11_2776)">
<path id="icon" fill-rule="evenodd" clip-rule="evenodd" d="M11.8911 3.58057C11.5982 3.28768 11.1233 3.28768 10.8304 3.58057C10.5376 3.87346 10.5376 4.34834 10.8304 4.64123L14.1892 8L10.8357 11.3536C10.5428 11.6465 10.5428 12.1214 10.8357 12.4142C11.1285 12.7071 11.6034 12.7071 11.8963 12.4142L15.7802 8.53033C16.0731 8.23744 16.0731 7.76256 15.7802 7.46967L11.8911 3.58057ZM4.10864 12.4194C4.40154 12.7123 4.87641 12.7123 5.16931 12.4194C5.4622 12.1265 5.4622 11.6517 5.1693 11.3588L1.81052 8L5.16404 4.64647C5.45694 4.35358 5.45694 3.87871 5.16404 3.58581C4.87115 3.29292 4.39627 3.29292 4.10338 3.58581L0.219526 7.46967C0.0788734 7.61032 -0.000143245 7.80109 -0.000143254 8C-0.000143263 8.19891 0.0788753 8.38968 0.219528 8.53033L4.10864 12.4194Z" fill="black"/>
</g>
<defs>
<clipPath id="clip0_11_2776">
<rect width="16" height="16" fill="white"/>
</clipPath>
</defs>
</svg>
