<svg width="16" height="16" viewBox="0 0 16 16" fill="none" xmlns="http://www.w3.org/2000/svg">
<g id="style=regular, keywords=arrows roll up">
<path id="icon" fill-rule="evenodd" clip-rule="evenodd" d="M2.14118 3.58057C1.84829 3.28768 1.37341 3.28768 1.08051 3.58057C0.787621 3.87346 0.787622 4.34834 1.08052 4.64123L4.4393 8L1.08573 11.3536C0.792839 11.6464 0.792839 12.1213 1.08573 12.4142C1.37863 12.7071 1.8535 12.7071 2.1464 12.4142L6.0303 8.53033C6.17095 8.38968 6.24997 8.19891 6.24997 8C6.24997 7.80109 6.17095 7.61032 6.0303 7.46967L2.14118 3.58057ZM13.8587 12.4194C14.1516 12.7123 14.6265 12.7123 14.9194 12.4194C15.2123 12.1265 15.2123 11.6517 14.9194 11.3588L11.5606 8L14.9141 4.64645C15.207 4.35356 15.207 3.87869 14.9141 3.58579C14.6213 3.2929 14.1464 3.2929 13.8535 3.58579L9.96958 7.46967C9.82893 7.61032 9.74991 7.80109 9.74991 8C9.74991 8.19891 9.82893 8.38968 9.96958 8.53033L13.8587 12.4194Z" fill="black"/>
</g>
</svg>
