<svg width="16" height="16" viewBox="0 0 16 16" fill="none" xmlns="http://www.w3.org/2000/svg">
<g id="style=regular, keywords=arrows collapse vertical">
<path id="icon" fill-rule="evenodd" clip-rule="evenodd" d="M12.4194 5.14118C12.7123 4.84829 12.7123 4.37341 12.4194 4.08051C12.1265 3.78762 11.6517 3.78762 11.3588 4.08052L8 7.4393L4.64645 4.08573C4.35356 3.79284 3.87869 3.79284 3.58579 4.08573C3.2929 4.37863 3.2929 4.8535 3.58579 5.1464L7.46967 9.0303C7.61032 9.17095 7.80109 9.24997 8 9.24997C8.19891 9.24997 8.38968 9.17095 8.53033 9.0303L12.4194 5.14118ZM3.58057 10.8588C3.28768 11.1517 3.28768 11.6265 3.58057 11.9194C3.87346 12.2123 4.34834 12.2123 4.64123 11.9194L8 8.56064L11.3536 11.9142C11.6464 12.2071 12.1213 12.2071 12.4142 11.9142C12.7071 11.6213 12.7071 11.1464 12.4142 10.8536L8.53033 6.96967C8.38968 6.82902 8.19891 6.75 8 6.75C7.80109 6.75 7.61032 6.82902 7.46967 6.96967L3.58057 10.8588Z" fill="black"/>
</g>
</svg>
