<svg width="16" height="16" viewBox="0 0 16 16" fill="none" xmlns="http://www.w3.org/2000/svg">
<g id="style=regular, keywords=arrow">
<path id="icon" fill-rule="evenodd" clip-rule="evenodd" d="M8 13.5001C11.0376 13.5001 13.5 11.0376 13.5 8.00006C13.5 4.96249 11.0376 2.50006 8 2.50006C4.96243 2.50006 2.5 4.96249 2.5 8.00006C2.5 11.0376 4.96243 13.5001 8 13.5001ZM8 15.0001C11.866 15.0001 15 11.8661 15 8.00006C15 4.13407 11.866 1.00006 8 1.00006C4.13401 1.00006 1 4.13407 1 8.00006C1 11.8661 4.13401 15.0001 8 15.0001ZM10.2803 11.0304C9.98744 11.3233 9.51256 11.3233 9.21967 11.0304L8 9.81072L6.78033 11.0304C6.48744 11.3233 6.01256 11.3233 5.71967 11.0304C5.42678 10.7375 5.42678 10.2626 5.71967 9.96973L7.46967 8.21973C7.61032 8.07908 7.80109 8.00006 8 8.00006C8.19891 8.00006 8.38968 8.07908 8.53033 8.21973L10.2803 9.96973C10.5732 10.2626 10.5732 10.7375 10.2803 11.0304ZM9.21967 7.28039C9.51256 7.57328 9.98744 7.57328 10.2803 7.28039C10.5732 6.9875 10.5732 6.51262 10.2803 6.21973L8.53033 4.46973C8.38968 4.32908 8.19891 4.25006 8 4.25006C7.80109 4.25006 7.61032 4.32908 7.46967 4.46973L5.71967 6.21973C5.42678 6.51262 5.42678 6.9875 5.71967 7.28039C6.01256 7.57328 6.48744 7.57328 6.78033 7.28039L8 6.06072L9.21967 7.28039Z" fill="black"/>
</g>
</svg>
