<svg width="16" height="16" viewBox="0 0 16 16" fill="none" xmlns="http://www.w3.org/2000/svg">
<g id="style=regular, keywords=-">
<path id="icon" fill-rule="evenodd" clip-rule="evenodd" d="M13.5 8.00003C13.5 11.0376 11.0376 13.5 8 13.5C4.96243 13.5 2.5 11.0376 2.5 8.00003C2.5 4.96246 4.96243 2.50003 8 2.50003C11.0376 2.50003 13.5 4.96246 13.5 8.00003ZM15 8.00003C15 11.866 11.866 15 8 15C4.13401 15 1 11.866 1 8.00003C1 4.13404 4.13401 1.00003 8 1.00003C11.866 1.00003 15 4.13404 15 8.00003ZM7.25 11C7.25 11.4142 7.58579 11.75 8 11.75C8.41421 11.75 8.75 11.4142 8.75 11L8.75 6.81069L9.46967 7.53036C9.76256 7.82325 10.2374 7.82325 10.5303 7.53036C10.8232 7.23747 10.8232 6.76259 10.5303 6.4697L8.53033 4.4697C8.23744 4.17681 7.76256 4.17681 7.46967 4.4697L5.46967 6.4697C5.17678 6.7626 5.17678 7.23747 5.46967 7.53036C5.76256 7.82326 6.23744 7.82326 6.53033 7.53036L7.25 6.81069L7.25 11Z" fill="black"/>
</g>
</svg>
