<svg width="16" height="16" viewBox="0 0 16 16" fill="none" xmlns="http://www.w3.org/2000/svg">
<g id="style=regular, keywords=-">
<path id="icon" fill-rule="evenodd" clip-rule="evenodd" d="M10.2182 3.21559C10.3373 2.81884 10.1121 2.40073 9.71539 2.28171C9.31864 2.16268 8.90053 2.38782 8.78151 2.78456L5.78151 12.7846C5.66248 13.1813 5.88762 13.5994 6.28437 13.7184C6.68111 13.8375 7.09922 13.6123 7.21825 13.2156L10.2182 3.21559ZM4.53021 4.9695C4.8231 5.26239 4.8231 5.73727 4.53021 6.03016L2.56054 7.99983L4.53021 9.9695C4.8231 10.2624 4.8231 10.7373 4.53021 11.0302C4.23732 11.3231 3.76244 11.3231 3.46955 11.0302L0.969548 8.53016C0.828895 8.38951 0.749878 8.19874 0.749878 7.99983C0.749878 7.80092 0.828895 7.61015 0.969548 7.4695L3.46955 4.9695C3.76244 4.67661 4.23732 4.67661 4.53021 4.9695ZM11.4695 11.0302C11.1767 10.7373 11.1767 10.2624 11.4695 9.9695L13.4392 7.99983L11.4695 6.03016C11.1767 5.73727 11.1767 5.26239 11.4695 4.9695C11.7624 4.67661 12.2373 4.67661 12.5302 4.9695L15.0302 7.4695C15.1709 7.61015 15.2499 7.80092 15.2499 7.99983C15.2499 8.19874 15.1709 8.38951 15.0302 8.53016L12.5302 11.0302C12.2373 11.3231 11.7624 11.3231 11.4695 11.0302Z" fill="black"/>
</g>
</svg>
