<svg width="16" height="16" viewBox="0 0 16 16" fill="none" xmlns="http://www.w3.org/2000/svg">
<g id="style=regular, keywords=processor">
<path id="icon" fill-rule="evenodd" clip-rule="evenodd" d="M7.00001 1.25C7.00001 0.835786 6.66422 0.5 6.25001 0.5C5.83579 0.5 5.50001 0.835786 5.50001 1.25L5.50001 2.5C3.84315 2.5 2.50001 3.84315 2.50001 5.5H1.24994C0.835725 5.5 0.499939 5.83579 0.499939 6.25C0.499939 6.66421 0.835725 7 1.24994 7H2.50001V9H1.24994C0.835726 9 0.499939 9.33579 0.499939 9.75C0.499939 10.1642 0.835726 10.5 1.24994 10.5H2.50001C2.50001 12.1569 3.84315 13.5 5.50001 13.5V14.75C5.50001 15.1642 5.83579 15.5 6.25001 15.5C6.66422 15.5 7.00001 15.1642 7.00001 14.75V13.5H9.00001V14.75C9.00001 15.1642 9.33579 15.5 9.75001 15.5C10.1642 15.5 10.5 15.1642 10.5 14.75V13.5C12.1569 13.5 13.5 12.1569 13.5 10.5H14.7499C15.1642 10.5 15.4999 10.1642 15.4999 9.75C15.4999 9.33579 15.1642 9 14.7499 9H13.5V7H14.7499C15.1642 7 15.4999 6.66421 15.4999 6.25C15.4999 5.83579 15.1642 5.5 14.7499 5.5H13.5C13.5 3.84315 12.1569 2.5 10.5 2.5V1.25C10.5 0.835786 10.1642 0.5 9.75001 0.5C9.33579 0.5 9.00001 0.835786 9.00001 1.25V2.5H7.00001V1.25ZM10.5 4H5.50001C4.67158 4 4.00001 4.67157 4.00001 5.5V10.5C4.00001 11.3284 4.67158 12 5.50001 12H10.5C11.3284 12 12 11.3284 12 10.5V5.5C12 4.67157 11.3284 4 10.5 4ZM10.4998 6.24983C10.4998 5.83561 10.1641 5.49983 9.74984 5.49983H6.24994C5.83573 5.49983 5.49994 5.83561 5.49994 6.24983V9.75C5.49994 9.94891 5.57896 10.1397 5.71961 10.2803C5.86026 10.421 6.05103 10.5 6.24994 10.5H9.74984C10.1641 10.5 10.4998 10.1642 10.4998 9.75V6.24983ZM6.99994 6.99983H8.99984V9H6.99994L6.99994 6.99983Z" fill="black"/>
</g>
</svg>
