<svg width="16" height="16" viewBox="0 0 16 16" fill="none" xmlns="http://www.w3.org/2000/svg">
<g id="style=regular, aliases=mail">
<path id="icon" fill-rule="evenodd" clip-rule="evenodd" d="M14 6.49818V11.5C14 12.3284 13.3284 13 12.5 13H3.5C2.67157 13 2 12.3284 2 11.5V6.49818C2 6.47819 2.0004 6.45825 2.00119 6.43838L6.35 9.69999C7.32778 10.4333 8.67222 10.4333 9.65 9.69999L13.9988 6.43838C13.9996 6.45825 14 6.47819 14 6.49818ZM13.1937 5.1672L8.73952 2.64315C8.28077 2.38319 7.71923 2.38319 7.26048 2.64315L2.80627 5.1672L7.25 8.49999C7.69444 8.83333 8.30556 8.83333 8.75 8.49999L13.1937 5.1672ZM0.5 6.49818C0.5 5.41775 1.08097 4.42078 2.02096 3.88811L6.52096 1.33811C7.43845 0.818203 8.56155 0.818204 9.47904 1.33811L13.979 3.88812C14.919 4.42078 15.5 5.41775 15.5 6.49818V11.5C15.5 13.1568 14.1569 14.5 12.5 14.5H3.5C1.84315 14.5 0.5 13.1568 0.5 11.5V6.49818Z" fill="black"/>
</g>
</svg>
