<svg width="16" height="16" viewBox="0 0 16 16" fill="none" xmlns="http://www.w3.org/2000/svg">
<g id="style=regular, keywords=-">
<path id="icon" fill-rule="evenodd" clip-rule="evenodd" d="M14 6.49818V11.5C14 12.3284 13.3284 13 12.5 13H3.5C2.67157 13 2 12.3284 2 11.5V6.49818C2 5.95797 2.29048 5.45948 2.76048 5.19315L7.26048 2.64315C7.71923 2.38319 8.28077 2.38319 8.73952 2.64315L13.2395 5.19315C13.7095 5.45948 14 5.95797 14 6.49818ZM0.5 6.49818C0.5 5.41775 1.08097 4.42078 2.02096 3.88811L6.52096 1.33811C7.43845 0.818203 8.56155 0.818204 9.47904 1.33811L13.979 3.88812C14.919 4.42078 15.5 5.41775 15.5 6.49818V11.5C15.5 13.1568 14.1569 14.5 12.5 14.5H3.5C1.84315 14.5 0.5 13.1568 0.5 11.5V6.49818ZM6.53033 5.96967C6.23744 5.67678 5.76256 5.67678 5.46967 5.96967C5.17678 6.26256 5.17678 6.73744 5.46967 7.03033L6.93934 8.5L5.46967 9.96967C5.17678 10.2626 5.17678 10.7374 5.46967 11.0303C5.76256 11.3232 6.23744 11.3232 6.53033 11.0303L8 9.56066L9.46967 11.0303C9.76256 11.3232 10.2374 11.3232 10.5303 11.0303C10.8232 10.7374 10.8232 10.2626 10.5303 9.96967L9.06066 8.5L10.5303 7.03033C10.8232 6.73744 10.8232 6.26256 10.5303 5.96967C10.2374 5.67678 9.76256 5.67678 9.46967 5.96967L8 7.43934L6.53033 5.96967Z" fill="black"/>
</g>
</svg>
