<svg width="16" height="16" viewBox="0 0 16 16" fill="none" xmlns="http://www.w3.org/2000/svg">
<g id="style=regular, aliases=-">
<path id="icon" fill-rule="evenodd" clip-rule="evenodd" d="M13.4999 11C13.9141 11 14.2499 10.6642 14.2499 10.25C14.2499 9.83579 13.9141 9.5 13.4999 9.5L2.49988 9.5C2.08567 9.5 1.74988 9.83579 1.74988 10.25C1.74988 10.6642 2.08567 11 2.49988 11L13.4999 11ZM13.4999 6.5C13.9141 6.5 14.2499 6.16421 14.2499 5.75C14.2499 5.33579 13.9141 5 13.4999 5L2.49988 5C2.08567 5 1.74988 5.33579 1.74988 5.75C1.74988 6.16421 2.08567 6.5 2.49988 6.5L13.4999 6.5Z" fill="black"/>
</g>
</svg>
