<svg width="16" height="16" viewBox="0 0 16 16" fill="none" xmlns="http://www.w3.org/2000/svg">
<g id="style=regular, keywords=scan touch">
<path id="icon" fill-rule="evenodd" clip-rule="evenodd" d="M6.96412 1.78969C7.08027 2.18729 6.85212 2.60376 6.45453 2.71992C4.66018 3.24413 3.24413 4.66018 2.71992 6.45453C2.60376 6.85212 2.18729 7.08027 1.78969 6.96412C1.3921 6.84796 1.16395 6.43148 1.28011 6.03389C1.94788 3.74817 3.74817 1.94788 6.03389 1.28011C6.43148 1.16395 6.84796 1.3921 6.96412 1.78969ZM9.03591 1.78969C9.15206 1.3921 9.56854 1.16395 9.96613 1.28011C12.8743 2.12973 15 4.81566 15 8.00001C15 9.21635 14.6891 10.3623 14.1419 11.3605C13.9428 11.7238 13.487 11.8568 13.1238 11.6577C12.7605 11.4586 12.6275 11.0027 12.8266 10.6395C13.2557 9.85671 13.5 8.95801 13.5 8.00001C13.5 5.49998 11.8314 3.38773 9.5455 2.71992C9.1479 2.60376 8.91975 2.18729 9.03591 1.78969ZM1.78969 9.03591C2.18729 8.91975 2.60376 9.1479 2.71992 9.5455C3.38773 11.8314 5.49998 13.5 8.00001 13.5C8.95801 13.5 9.85671 13.2557 10.6395 12.8266C11.0027 12.6275 11.4586 12.7605 11.6577 13.1238C11.8568 13.487 11.7238 13.9428 11.3605 14.1419C10.3623 14.6891 9.21635 15 8.00001 15C4.81566 15 2.12973 12.8743 1.28011 9.96614C1.16395 9.56854 1.3921 9.15206 1.78969 9.03591ZM8.00001 5.50001C6.6193 5.50001 5.50001 6.6193 5.50001 8.00001C5.50001 8.96346 6.04481 9.80091 6.84665 10.2188C7.21397 10.4103 7.35654 10.8632 7.1651 11.2305C6.97366 11.5979 6.52069 11.7404 6.15337 11.549C4.87532 10.8829 4.00001 9.54429 4.00001 8.00001C4.00001 5.79087 5.79087 4.00001 8.00001 4.00001C10.2092 4.00001 12 5.79087 12 8.00001C12 8.41423 11.6642 8.75001 11.25 8.75001C10.8358 8.75001 10.5 8.41423 10.5 8.00001C10.5 6.6193 9.38072 5.50001 8.00001 5.50001ZM8.74216 7.89177C8.68238 7.48189 8.30164 7.19808 7.89177 7.25786C7.48189 7.31765 7.19808 7.69838 7.25786 8.10826C7.50955 9.83385 8.7505 11.1093 10.4388 11.2475C10.8517 11.2813 11.2137 10.974 11.2475 10.5612C11.2813 10.1484 10.974 9.7863 10.5612 9.75251C9.64294 9.67735 8.90409 9.00201 8.74216 7.89177Z" fill="black"/>
</g>
</svg>
