<svg width="16" height="16" viewBox="0 0 16 16" fill="none" xmlns="http://www.w3.org/2000/svg">
<g id="style=regular, keywords=-">
<path id="icon" fill-rule="evenodd" clip-rule="evenodd" d="M7.47064 3.58833C6.20911 2.83141 4.65487 2.74739 3.31909 3.36391C3.12457 3.45369 3 3.64837 3 3.86261V9.39562C4.81318 8.66634 6.86666 8.82666 8.54713 9.83494L8.89147 10.0415C10.0695 10.7483 11.5269 10.8043 12.7557 10.1899C12.9054 10.1151 13 9.96202 13 9.7946V4.1816C11.2292 4.83356 9.24747 4.65443 7.61413 3.67442L7.47064 3.58833ZM13.4265 11.5316C11.739 12.3753 9.73749 12.2984 8.11973 11.3278L7.77539 11.1212C6.46762 10.3365 4.86261 10.2276 3.46081 10.8284L3 11.0259V14.2813C3 14.6955 2.66421 15.0313 2.25 15.0313C1.83579 15.0313 1.5 14.6955 1.5 14.2813V3.86261C1.5 3.0633 1.96476 2.33693 2.6905 2.00197C4.47685 1.1775 6.55533 1.28986 8.24239 2.30209L8.38587 2.38818C9.73717 3.19897 11.402 3.28896 12.8328 2.62858L13.4357 2.35033C13.6679 2.24315 13.9388 2.2617 14.1542 2.39955C14.3697 2.5374 14.5 2.77554 14.5 3.0313V9.7946C14.5 10.5302 14.0844 11.2026 13.4265 11.5316Z" fill="black"/>
</g>
</svg>
