<svg width="16" height="16" viewBox="0 0 16 16" fill="none" xmlns="http://www.w3.org/2000/svg">
<g id="style=regular, keywords=setting custom tuning cog">
<path id="icon" fill-rule="evenodd" clip-rule="evenodd" d="M7.19875 2.00011H8.80127C8.911 2.00011 8.99999 2.08907 8.99999 2.19884C8.99999 4.00732 10.9577 5.13773 12.524 4.23345C12.619 4.17858 12.7405 4.21114 12.7954 4.30617L13.5967 5.69405C13.6516 5.7891 13.619 5.91064 13.524 5.96552C11.9577 6.86979 11.9577 9.13047 13.524 10.0347C13.619 10.0896 13.6516 10.2112 13.5967 10.3062L12.7954 11.6941C12.7405 11.7891 12.619 11.8217 12.524 11.7668C10.9578 10.8625 8.99999 11.9929 8.99999 13.8014C8.99999 13.9111 8.91103 14.0001 8.8013 14.0001H7.19873C7.08897 14.0001 6.99999 13.9111 6.99999 13.8014C6.99999 11.9928 5.04213 10.8625 3.47592 11.7668C3.38083 11.8217 3.25926 11.7891 3.20438 11.694L2.40313 10.3062C2.34825 10.2112 2.38082 10.0896 2.47587 10.0347C4.04211 9.13047 4.04211 6.86979 2.47587 5.96552C2.38082 5.91064 2.34825 5.7891 2.40313 5.69405L3.20438 4.30625C3.25926 4.21118 3.38084 4.1786 3.47591 4.23349C5.04216 5.13777 6.99999 4.00744 6.99999 2.19887C6.99999 2.0891 7.08898 2.00011 7.19875 2.00011ZM5.49999 2.19887C5.49999 1.26067 6.26055 0.500107 7.19875 0.500107H8.80127C9.73945 0.500107 10.5 1.26067 10.5 2.19884C10.5 2.85267 11.2078 3.26132 11.774 2.93441C12.5865 2.46533 13.6254 2.7437 14.0944 3.55617L14.8957 4.94405C15.3648 5.75654 15.0865 6.79547 14.274 7.26456C13.7077 7.59148 13.7077 8.40878 14.274 8.7357C15.0865 9.20479 15.3648 10.2437 14.8957 11.0562L14.0944 12.4441C13.6254 13.2566 12.5865 13.5349 11.774 13.0659C11.2078 12.7389 10.5 13.1476 10.5 13.8014C10.5 14.7396 9.73946 15.5001 8.8013 15.5001H7.19873C6.26054 15.5001 5.49999 14.7396 5.49999 13.8014C5.49999 13.1475 4.79217 12.7389 4.22592 13.0658C3.41341 13.5349 2.37444 13.2565 1.90534 12.444L1.10409 11.0562C0.635 10.2437 0.913379 9.20479 1.72587 8.7357C2.29211 8.40878 2.29211 7.59148 1.72587 7.26456C0.91338 6.79547 0.635 5.75654 1.10409 4.94405L1.90534 3.55625C2.37444 2.74374 3.4134 2.46535 4.22591 2.93446C4.79217 3.26138 5.49999 2.85273 5.49999 2.19887ZM9.49996 8.00011C9.49996 8.82853 8.82839 9.50011 7.99996 9.50011C7.17154 9.50011 6.49996 8.82853 6.49996 8.00011C6.49996 7.17168 7.17154 6.50011 7.99996 6.50011C8.82839 6.50011 9.49996 7.17168 9.49996 8.00011ZM11 8.00011C11 9.65696 9.65682 11.0001 7.99996 11.0001C6.34311 11.0001 4.99996 9.65696 4.99996 8.00011C4.99996 6.34325 6.34311 5.00011 7.99996 5.00011C9.65682 5.00011 11 6.34325 11 8.00011Z" fill="black"/>
</g>
</svg>
