<svg width="16" height="16" viewBox="0 0 16 16" fill="none" xmlns="http://www.w3.org/2000/svg">
<g id="style=regular, aliases=phone">
<path id="icon" fill-rule="evenodd" clip-rule="evenodd" d="M14.1245 9.83289C13.716 9.28816 13.1655 8.86627 12.5333 8.61338L12.5011 8.60053C11.5688 8.22762 10.5096 8.36772 9.70636 8.97016L9.34678 9.23984C9.14772 9.38914 8.86918 9.36934 8.69323 9.1934L6.8065 7.30667C6.63056 7.13072 6.61076 6.85217 6.76006 6.65311L7.02974 6.29354C7.63218 5.49028 7.77228 4.43105 7.39937 3.49879L7.38651 3.46664C7.13363 2.83443 6.71174 2.28394 6.16701 1.87539L5.97645 1.73247C5.36483 1.27375 4.56707 1.14429 3.84178 1.38606L3.65243 1.44918C2.61212 1.79595 1.79578 2.61228 1.44901 3.65259C1.15567 4.53261 1.11939 5.47812 1.34437 6.37804C1.77326 8.09362 2.66039 9.66055 3.91082 10.911L5.08891 12.0891C6.33934 13.3395 7.90628 14.2266 9.62186 14.6555C10.5218 14.8805 11.4673 14.8442 12.3473 14.5509C13.3876 14.2041 14.204 13.3878 14.5507 12.3475L14.6138 12.1581C14.8556 11.4328 14.7261 10.6351 14.2674 10.0234L14.1245 9.83289ZM5.15901 3.21939L4.96845 3.07647C4.79786 2.94852 4.57534 2.91241 4.37304 2.97985L4.18369 3.04296C3.64504 3.22252 3.22235 3.6452 3.0428 4.18386C2.85051 4.76073 2.82671 5.3806 2.97421 5.97058C3.32926 7.39079 4.06366 8.68794 5.09876 9.72304L6.27685 10.9011C7.31195 11.9362 8.60911 12.6706 10.0293 13.0257C10.6193 13.1732 11.2392 13.1494 11.816 12.9571C12.3547 12.7775 12.7774 12.3549 12.9569 11.8162L13.0201 11.6269C13.0875 11.4246 13.0514 11.202 12.9234 11.0314L12.7805 10.8409C12.5568 10.5427 12.2554 10.3117 11.9093 10.1732L11.8772 10.1604C11.4893 10.0052 11.0486 10.0635 10.7144 10.3142L10.3548 10.5838C9.48689 11.2348 8.27242 11.1485 7.50529 10.3813L5.61856 8.49461C4.85144 7.72748 4.76513 6.51301 5.41606 5.64511L5.68574 5.28554C5.9364 4.95133 5.99468 4.51061 5.83953 4.12273L5.82667 4.09058C5.68822 3.74445 5.45724 3.44306 5.15901 3.21939Z" fill="black"/>
</g>
</svg>
