<svg width="16" height="16" viewBox="0 0 16 16" fill="none" xmlns="http://www.w3.org/2000/svg">
<g id="style=regular, keywords=okay" clip-path="url(#clip0_11_3626)">
<path id="icon" fill-rule="evenodd" clip-rule="evenodd" d="M6.49994 6.96274C6.49994 6.21289 5.84462 5.71461 5.18997 5.78317C5.14871 5.78749 5.10745 5.79407 5.06635 5.80297C4.99278 5.81891 4.91975 5.84232 4.8482 5.87366C4.75453 5.91468 4.66339 5.96928 4.5769 6.03847L4.3696 6.20431L4.28876 6.26899C4.28206 6.27434 4.27527 6.27953 4.26839 6.28455C4.09436 6.4116 3.86314 6.43163 3.66915 6.33463C3.52517 6.26264 3.42665 6.14104 3.38014 6.00315C3.31728 5.81679 3.34939 5.60067 3.49263 5.43696L3.56081 5.35905L3.80767 5.07693L3.96561 4.89642L3.99366 4.86436C4.17181 4.66076 4.37362 4.49755 4.58984 4.37317C5.76536 3.69697 7.36722 4.16824 7.91346 5.53385L8.08748 5.9689L8.46219 6.90569L8.49993 7.00003H9.49993L9.53766 6.58494L9.61392 5.74613L9.88194 2.79786L9.95241 2.02271L9.95671 1.97539C9.98119 1.70617 10.2069 1.50003 10.4772 1.50003C10.7659 1.50003 10.9999 1.73404 10.9999 2.02271V2.07023V2.8486V5.03995V5.50003V6.71432V7.00003H11.0061H11.8175H11.9999L12.4999 5.25003L12.6612 4.68543L12.8811 3.91597L12.8942 3.87022C12.9568 3.6511 13.157 3.50003 13.3849 3.50003C13.7045 3.50003 13.9455 3.79039 13.8866 4.1045L13.8778 4.15126L13.7303 4.93787L13.2754 7.36444L13.167 7.94254L12.4999 11.5L9.19799 11.7835L6.47002 11.9654L5.79061 11.7764C4.77571 11.494 3.9183 10.8683 3.34012 10.0378C3.18349 9.81284 3.04735 9.57284 2.93412 9.32056C2.86946 9.17649 2.81227 9.02843 2.763 8.87687C2.6977 8.67598 2.64631 8.46896 2.60989 8.257C2.60279 8.21569 2.59626 8.17419 2.59031 8.13251C2.55834 7.90874 2.6642 7.70077 2.83904 7.58796C2.911 7.54154 2.99464 7.51123 3.08517 7.50258C3.10282 7.50089 3.12072 7.50003 3.13885 7.50003H3.27153C3.41253 7.50003 3.54247 7.57641 3.61106 7.6996L3.71412 7.88471L3.75912 7.96554L4.01175 8.4193L4.1398 8.64931C4.22614 8.80438 4.34246 8.93656 4.47922 9.04025C4.69464 9.20357 4.96078 9.2962 5.24034 9.2962C5.93599 9.2962 6.49993 8.73226 6.49993 8.0366L6.49994 6.96274ZM1.10538 8.34464C0.992902 7.55728 1.34072 6.82269 1.93061 6.39246C1.74472 5.74432 1.87226 5.01093 2.36377 4.44921L2.86479 3.87661C4.33894 2.19187 6.79839 2.19038 8.30814 3.54163L8.46287 1.83959C8.55759 0.797749 9.43111 3.05176e-05 10.4772 3.05176e-05C11.5943 3.05176e-05 12.4999 0.905617 12.4999 2.02271V2.20521C12.7691 2.07312 13.0704 2.00003 13.3849 2.00003C14.6437 2.00003 15.5929 3.1437 15.3609 4.38093L13.9742 11.7765C13.8501 12.4387 13.2996 12.9369 12.6282 12.9945L9.32629 13.278L9.29777 13.2802L6.5698 13.462C6.40082 13.4733 6.23116 13.4559 6.068 13.4105L5.3886 13.2215C3.11938 12.5902 1.43848 10.6764 1.10538 8.34464ZM13.3034 15.4981C13.7165 15.4686 14.0276 15.1098 13.998 14.6966C13.9685 14.2834 13.6097 13.9724 13.1965 14.0019L6.19652 14.5019C5.78336 14.5314 5.47235 14.8903 5.50186 15.3035C5.53137 15.7166 5.89023 16.0276 6.30339 15.9981L13.3034 15.4981Z" fill="black"/>
</g>
<defs>
<clipPath id="clip0_11_3626">
<rect width="16" height="16" fill="white"/>
</clipPath>
</defs>
</svg>
