<svg width="16" height="16" viewBox="0 0 16 16" fill="none" xmlns="http://www.w3.org/2000/svg">
<g id="style=regular, keywords=touch finger arm" clip-path="url(#clip0_11_3814)">
<path id="icon" fill-rule="evenodd" clip-rule="evenodd" d="M2.50006 6L5.40626 2.26345C5.78092 1.78175 6.357 1.5 6.96725 1.5C8.09535 1.5 8.96008 2.42959 8.9456 3.5C8.94357 3.65035 8.92419 3.80347 8.88576 3.95719L8.62506 5L10.1712 5L10.5001 5L14.058 5C15.1306 5 16.0001 5.86951 16.0001 6.9421C16.0001 7.85236 15.3678 8.64049 14.4793 8.83796L11.5001 9.5L11.0427 12.244C10.7518 13.9897 9.02063 15.1055 7.31057 14.6495L3.00006 13.5L2.50006 6ZM7.69706 13.2001L4.42523 12.3276L4.03473 6.47009L6.59029 3.18437C6.68077 3.06804 6.81988 3 6.96725 3C7.27794 3 7.5059 3.29197 7.43055 3.59338L7.16985 4.6362L6.7039 6.5L8.62506 6.5L10.5001 6.5L14.058 6.5C14.3021 6.5 14.5001 6.69794 14.5001 6.9421C14.5001 7.14931 14.3561 7.32872 14.1539 7.37367L11.1747 8.03572L10.1868 8.25524L10.0205 9.2534L9.56314 11.9974C9.41767 12.8702 8.55209 13.4281 7.69706 13.2001ZM0.501968 13.3034C0.531479 13.7166 0.890336 14.0276 1.3035 13.9981C1.71666 13.9686 2.02767 13.6097 1.99816 13.1966L1.49815 6.19657C1.46864 5.7834 1.10979 5.4724 0.696626 5.50191C0.283465 5.53142 -0.0275438 5.89028 0.00196669 6.30344L0.501968 13.3034Z" fill="black"/>
</g>
<defs>
<clipPath id="clip0_11_3814">
<rect width="16" height="16" fill="white"/>
</clipPath>
</defs>
</svg>
