<svg width="16" height="16" viewBox="0 0 16 16" fill="none" xmlns="http://www.w3.org/2000/svg">
<g id="style=regular, keywords=touch finger arm" clip-path="url(#clip0_11_3830)">
<path id="icon" fill-rule="evenodd" clip-rule="evenodd" d="M6 2.50003L2.26345 5.40623C1.78175 5.78089 1.5 6.35697 1.5 6.96722C1.5 8.09532 2.42959 8.96005 3.5 8.94557C3.65035 8.94354 3.80347 8.92416 3.95719 8.88573L5 8.62503V10.1712V10.5L5 14.0579C5 15.1305 5.86951 16 6.9421 16C7.85236 16 8.64049 15.3678 8.83796 14.4792L9.5 11.5L12.244 11.0427C13.9897 10.7517 15.1055 9.0206 14.6495 7.31053L13.5 3.00003L6 2.50003ZM13.2001 7.69703L12.3276 4.4252L6.47009 4.0347L3.18436 6.59026C3.06804 6.68074 3 6.81985 3 6.96722C3 7.27791 3.29197 7.50587 3.59338 7.43052L4.6362 7.16982L6.5 6.70387V8.62503L6.5 10.5V14.0579C6.5 14.3021 6.69794 14.5 6.9421 14.5C7.14931 14.5 7.32872 14.3561 7.37367 14.1538L8.03572 11.1746L8.25524 10.1868L9.2534 10.0204L11.9974 9.56311C12.8702 9.41763 13.4281 8.55206 13.2001 7.69703ZM13.3034 0.501937C13.7166 0.531448 14.0276 0.890305 13.9981 1.30347C13.9686 1.71663 13.6097 2.02764 13.1966 1.99812L6.19656 1.49812C5.7834 1.46861 5.47239 1.10976 5.50191 0.696595C5.53142 0.283434 5.89027 -0.0275745 6.30344 0.00193596L13.3034 0.501937Z" fill="black"/>
</g>
<defs>
<clipPath id="clip0_11_3830">
<rect width="16" height="16" fill="white"/>
</clipPath>
</defs>
</svg>
