<svg width="16" height="16" viewBox="0 0 16 16" fill="none" xmlns="http://www.w3.org/2000/svg">
<g id="style=regular, keywords=-">
<path id="icon" fill-rule="evenodd" clip-rule="evenodd" d="M4.76 1.49945C3.4822 1.49945 2.39504 1.959 1.6329 2.79557C0.878044 3.62415 0.5 4.75785 0.5 6.01293C0.5 8.19254 1.60945 9.93037 3.01909 11.2806C4.42375 12.626 6.18921 13.649 7.65248 14.4141C7.86916 14.5274 8.12746 14.5279 8.34463 14.4156C9.80786 13.6586 11.5728 12.6279 12.9784 11.276C14.3872 9.92101 15.5 8.17826 15.5 6.01293C15.5 4.75351 15.1199 3.6195 14.3637 2.79189C13.6005 1.95665 12.5137 1.49945 11.24 1.49945C10.0662 1.49945 8.82815 2.05012 7.99908 3.12486C7.16673 2.04956 5.92389 1.49945 4.76 1.49945ZM2 6.01293C2 5.05326 2.28672 4.30521 2.74175 3.80575C3.1895 3.31427 3.85733 2.99945 4.76 2.99945C5.65952 2.99945 6.70082 3.54555 7.18953 4.68823L6.06572 7.19297C5.91022 7.53955 6.03839 7.94767 6.36413 8.14311L8.37455 9.34936L7.46873 12.6103C6.28199 11.9463 5.05292 11.1516 4.05667 10.1973C2.81606 9.00902 2 7.63651 2 6.01293ZM9.11855 12.2754C10.1119 11.6856 11.1062 10.9955 11.9386 10.1949C13.1825 8.99848 14 7.62041 14 6.01293C14 5.04994 13.7118 4.3022 13.2563 3.80368C12.8078 3.31278 12.1397 2.99945 11.24 2.99945C10.2663 2.99945 9.15161 3.62411 8.71533 4.93961C8.71024 4.9557 8.70457 4.97171 8.69831 4.98763C8.69307 5.00104 8.68746 5.01423 8.6815 5.02721L7.70687 7.19946L9.63587 8.35687C9.92512 8.53042 10.0629 8.87571 9.97264 9.20072L9.11855 12.2754Z" fill="black"/>
</g>
</svg>
