<svg width="16" height="16" viewBox="0 0 16 16" fill="none" xmlns="http://www.w3.org/2000/svg">
<g id="style=regular, keywords=-">
<path id="icon" fill-rule="evenodd" clip-rule="evenodd" d="M4.76 1.49945C3.63734 1.49945 2.65822 1.85381 1.91619 2.51526C1.17733 3.17389 0.723153 4.09244 0.5644 5.13798C0.502219 5.5475 0.78379 5.92989 1.19331 5.99207C1.60283 6.05425 1.98522 5.77268 2.0474 5.36316C2.16192 4.60898 2.47455 4.02697 2.91431 3.63497C3.3509 3.24579 3.96219 2.99945 4.76 2.99945C5.72522 2.99945 6.85369 3.62824 7.2875 4.94817C7.38865 5.25596 7.67601 5.464 8 5.464C8.32399 5.464 8.61135 5.25596 8.71251 4.94817C9.14678 3.62682 10.2641 2.99945 11.24 2.99945C12.1397 2.99945 12.8078 3.31278 13.2563 3.80368C13.7118 4.3022 14 5.04994 14 6.01293C14 7.62041 13.1825 8.99848 11.9386 10.1949C10.7916 11.2981 9.33729 12.1914 8.00152 12.9018C6.66302 12.185 5.21426 11.3022 4.06979 10.2099C3.77015 9.92387 3.29541 9.93493 3.00942 10.2346C2.72343 10.5342 2.73449 11.0089 3.03412 11.2949C4.43622 12.6332 6.1943 13.6516 7.65248 14.4141C7.86916 14.5274 8.12746 14.5279 8.34464 14.4156C9.80786 13.6586 11.5728 12.6279 12.9784 11.276C14.3872 9.92101 15.5 8.17826 15.5 6.01293C15.5 4.75351 15.1199 3.6195 14.3637 2.79189C13.6005 1.95665 12.5137 1.49945 11.24 1.49945C10.0662 1.49945 8.82815 2.05012 7.99908 3.12486C7.16673 2.04956 5.92389 1.49945 4.76 1.49945ZM5.6103 5.8141C5.48663 5.64096 5.29523 5.5285 5.08379 5.50473C4.87235 5.48095 4.66076 5.54811 4.50173 5.68947L2.46485 7.50003H0.75C0.335786 7.50003 0 7.83582 0 8.25003C0 8.66424 0.335786 9.00003 0.75 9.00003H2.75C2.93369 9.00003 3.11099 8.93262 3.24827 8.81059L4.87466 7.36491L6.8897 10.186C7.0287 10.3806 7.25216 10.4972 7.49128 10.5C7.7304 10.5028 7.95652 10.3913 8.1 10.2L9.375 8.50003H11C11.4142 8.50003 11.75 8.16424 11.75 7.75003C11.75 7.33582 11.4142 7.00003 11 7.00003H9C8.76393 7.00003 8.54164 7.11118 8.4 7.30003L7.51476 8.48035L5.6103 5.8141Z" fill="black"/>
</g>
</svg>
