<svg width="16" height="16" viewBox="0 0 16 16" fill="none" xmlns="http://www.w3.org/2000/svg">
<g id="style=regular, keywords=home building">
<path id="Subtract" d="M6.1709 1.90722C7.24925 1.07772 8.75075 1.07772 9.8291 1.90722L13.3291 4.59961C13.4214 4.67057 13.5093 4.746 13.5918 4.82617C14.1691 5.3875 14.5 6.1626 14.5 6.97754V11.5C14.5 13.1569 13.1569 14.5 11.5 14.5H4.5C2.84315 14.5 1.5 13.1569 1.5 11.5V6.97754C1.5 6.04616 1.9327 5.1675 2.6709 4.59961L4.4209 3.25293L6.1709 1.90722ZM8.91504 3.0957C8.37586 2.68095 7.62414 2.68095 7.08496 3.0957C7.06969 3.10745 5.84433 4.05056 5.33496 4.44238L3.58496 5.78808C3.53894 5.8235 3.49525 5.86137 3.4541 5.90136C3.16541 6.18203 3 6.57004 3 6.97754V11.5C3 11.9442 3.19313 12.3435 3.5 12.6182C3.7638 12.8543 4.11168 12.9983 4.49316 13H5V9.5C5.00002 8.39545 5.89544 7.5 7 7.5H9C10.1046 7.5 11 8.39544 11 9.5V13H11.5068C11.8883 12.9983 12.2362 12.8543 12.5 12.6182C12.8069 12.3435 13 11.9442 13 11.5V6.97754C13 6.51191 12.7841 6.07203 12.415 5.78808L8.91504 3.0957ZM7 9C6.72387 9 6.50002 9.22387 6.5 9.5V13H9.5V9.5C9.49998 9.22387 9.27613 9 9 9H7Z" fill="black"/>
</g>
</svg>
