<svg width="16" height="16" viewBox="0 0 16 16" fill="none" xmlns="http://www.w3.org/2000/svg">
<g id="style=regular, keywords=text style font format">
<path id="icon" fill-rule="evenodd" clip-rule="evenodd" d="M7.25006 2C6.83585 2 6.50006 2.33579 6.50006 2.75C6.50006 3.16421 6.83585 3.5 7.25006 3.5H8.56698L5.86698 12.5H4.25006C3.83585 12.5 3.50006 12.8358 3.50006 13.25C3.50006 13.6642 3.83585 14 4.25006 14H8.75006C9.16427 14 9.50006 13.6642 9.50006 13.25C9.50006 12.8358 9.16427 12.5 8.75006 12.5H7.43302L10.133 3.5H11.7501C12.1643 3.5 12.5001 3.16421 12.5001 2.75C12.5001 2.33579 12.1643 2 11.7501 2H7.25006Z" fill="black"/>
</g>
</svg>
