<svg width="16" height="16" viewBox="0 0 16 16" fill="none" xmlns="http://www.w3.org/2000/svg">
<g id="style=regular, keywords=security safe">
<path id="icon" fill-rule="evenodd" clip-rule="evenodd" d="M10.3128 7.48822L9 7.65332V8.9765V13.0229C9 13.2424 8.85685 13.4362 8.64706 13.5008L7.02747 13.9992C7.02544 13.9998 7.02334 14.0001 7.02122 14.0001C7.01779 14.0001 7.01599 13.9998 7.01536 13.9997L7.01342 13.9991C7.01197 13.9985 7.00923 13.9969 7.00622 13.9939C7.0032 13.9909 7.00167 13.9882 7.00105 13.9867L7.00045 13.9848L7.00026 13.9836C7.00013 13.9826 7 13.9811 7 13.9789V8.9765V7.65333L5.68717 7.48822C5.07315 7.411 4.56067 6.95876 4.41592 6.34356L3.82768 3.84356C3.60614 2.902 4.32053 2 5.28781 2H10.7122C11.6795 2 12.3939 2.902 12.1723 3.84356L11.5841 6.34356C11.4393 6.95876 10.9269 7.411 10.3128 7.48822ZM13.0442 6.68712C12.7544 7.91859 11.7294 8.82188 10.5 8.9765V13.0229C10.5 13.9009 9.92739 14.6762 9.08825 14.9344L7.46865 15.4329C7.3237 15.4775 7.17289 15.5001 7.02122 15.5001C6.18107 15.5001 5.5 14.8191 5.5 13.9789V8.9765C4.27059 8.82188 3.24555 7.91859 2.95579 6.68712L2.36756 4.18712C1.92447 2.30399 3.35326 0.5 5.28781 0.5H10.7122C12.6467 0.5 14.0755 2.304 13.6324 4.18712L13.0442 6.68712ZM6.74999 3.5C6.33578 3.5 5.99999 3.83579 5.99999 4.25C5.99999 4.66421 6.33578 5 6.74999 5H9.24999C9.66421 5 9.99999 4.66421 9.99999 4.25C9.99999 3.83579 9.66421 3.5 9.24999 3.5H6.74999Z" fill="black"/>
</g>
</svg>
