<svg width="16" height="16" viewBox="0 0 16 16" fill="none" xmlns="http://www.w3.org/2000/svg">
<g id="style=regular, keywords=-">
<path id="icon" fill-rule="evenodd" clip-rule="evenodd" d="M5.28268 13.2111L3.26399 9.17376C3.09042 8.82662 3.00006 8.44384 3.00006 8.05573L3.00006 7.94427C3.00006 7.55616 3.09042 7.17338 3.26399 6.82624L5.28269 2.78885C5.3712 2.61183 5.55214 2.5 5.75006 2.5C5.94799 2.5 6.12892 2.61183 6.21744 2.78885L8.23613 6.82624C8.4097 7.17338 8.50006 7.55616 8.50006 7.94427L8.50006 8.05573C8.50006 8.44384 8.4097 8.82662 8.23613 9.17376L6.21744 13.2111C6.12892 13.3882 5.94799 13.5 5.75006 13.5C5.55214 13.5 5.3712 13.3882 5.28268 13.2111ZM5.75006 15C4.98398 15 4.28365 14.5672 3.94104 13.882L1.92235 9.84458C1.64464 9.28916 1.50006 8.67671 1.50006 8.05573L1.50006 7.94427C1.50006 7.32329 1.64464 6.71084 1.92235 6.15542L3.94104 2.11803C4.28365 1.43283 4.98398 1 5.75006 1C6.51614 1 7.21648 1.43283 7.55908 2.11803L8.00001 2.99991L8.44095 2.11803C8.78355 1.43283 9.48388 1 10.25 1C11.0161 1 11.7164 1.43283 12.059 2.11803L14.0777 6.15542C14.3554 6.71084 14.5 7.32329 14.5 7.94427L14.5 8.05573C14.5 8.67671 14.3554 9.28916 14.0777 9.84458L12.059 13.882C11.7164 14.5672 11.0161 15 10.25 15C9.48388 15 8.78355 14.5672 8.44095 13.882L8.00001 13.0001L7.55908 13.882C7.21648 14.5672 6.51614 15 5.75006 15ZM8.83854 11.323L9.78259 13.2111C9.87111 13.3882 10.052 13.5 10.25 13.5C10.4479 13.5 10.6288 13.3882 10.7173 13.2111L12.736 9.17376C12.9096 8.82662 13 8.44384 13 8.05573L13 7.94427C13 7.55616 12.9096 7.17338 12.736 6.82624L10.7173 2.78885C10.6288 2.61183 10.4479 2.5 10.25 2.5C10.052 2.5 9.87111 2.61183 9.78259 2.78885L8.83854 4.67696L9.57777 6.15542C9.85548 6.71084 10.0001 7.32329 10.0001 7.94427L10.0001 8.05573C10.0001 8.67671 9.85548 9.28916 9.57777 9.84458L8.83854 11.323Z" fill="black"/>
</g>
</svg>
