<svg width="16" height="16" viewBox="0 0 16 16" fill="none" xmlns="http://www.w3.org/2000/svg">
<g id="style=regular, aliases=-">
<path id="edit" d="M3.42182 10.505C3.58672 10.5289 3.7307 10.6344 3.80268 10.7882C3.87465 10.9422 3.86304 11.1208 3.77533 11.2628L3.73334 11.3214L3.39154 11.7286C3.48511 11.7868 3.57045 11.8548 3.64545 11.9337C3.90377 12.2056 3.99994 12.5475 3.99994 12.8409C3.99978 13.2553 3.76351 13.5615 3.48822 13.7423C3.21961 13.9186 2.88673 14 2.5683 14.0001C2.08406 14.0001 1.60155 13.788 1.36811 13.379L1.32416 13.295L1.29193 13.1993C1.23931 12.9726 1.35141 12.7325 1.57123 12.6319C1.79085 12.5315 2.04534 12.6035 2.18256 12.7911L2.23432 12.879L2.24994 12.9005C2.26137 12.9122 2.28047 12.9267 2.30951 12.9425C2.36603 12.9732 2.45327 13.0001 2.5683 13.0001C2.72812 13 2.86179 12.9573 2.9394 12.9063C2.97601 12.8823 2.99093 12.8619 2.99604 12.8536C2.99923 12.8484 2.99992 12.8464 2.99994 12.8409C2.99994 12.7551 2.97161 12.6756 2.92084 12.6222C2.88867 12.5883 2.8207 12.5366 2.67963 12.5128L2.51361 12.5001C2.31955 12.5001 2.14274 12.3878 2.06049 12.212C1.9783 12.0361 2.00523 11.8277 2.12983 11.6788L2.27924 11.5001H1.90033C1.6242 11.5001 1.40033 11.2762 1.40033 11.0001C1.40033 10.724 1.6242 10.5001 1.90033 10.5001H3.34955L3.42182 10.505ZM14.3271 11.504C14.7051 11.5426 14.9999 11.8619 14.9999 12.2501C14.9999 12.6383 14.7051 12.9576 14.3271 12.9962L14.2499 13.0001H5.74994C5.33573 13.0001 4.99994 12.6643 4.99994 12.2501C4.99995 11.8359 5.33573 11.5001 5.74994 11.5001H14.2499L14.3271 11.504ZM2.65033 6.2501C2.99573 6.25017 3.31737 6.35842 3.55365 6.59287C3.78891 6.82636 3.89057 7.13681 3.89057 7.44444C3.89037 7.95245 3.56881 8.29875 3.12983 8.7208C3.12327 8.72711 3.11621 8.73342 3.10932 8.73936L3.09662 8.7501H3.58979L3.69037 8.75986C3.91844 8.80631 4.08979 9.00831 4.08979 9.2501C4.08979 9.49189 3.91844 9.69389 3.69037 9.74033L3.58979 9.7501H1.74994C1.54094 9.75009 1.35395 9.61986 1.28119 9.42393C1.20856 9.22805 1.26548 9.00756 1.42377 8.87119L2.44233 7.99326C2.66772 7.77624 2.7837 7.64754 2.84467 7.55674C2.89152 7.48685 2.89059 7.46385 2.89057 7.44444C2.89057 7.35484 2.86281 7.31696 2.84858 7.30283C2.83505 7.28952 2.78615 7.25016 2.65033 7.2501C2.56786 7.2501 2.47491 7.2795 2.40424 7.33018C2.33397 7.38062 2.31724 7.42745 2.3144 7.44639L1.82026 7.37119L1.32514 7.29697C1.37701 6.95241 1.58541 6.68799 1.82123 6.51865C2.05678 6.34959 2.35242 6.2501 2.65033 6.2501ZM14.3271 7.25401C14.7051 7.29263 14.9999 7.61194 14.9999 8.0001C14.9999 8.38826 14.7051 8.70757 14.3271 8.74619L14.2499 8.7501H5.74994C5.33573 8.7501 4.99994 8.41431 4.99994 8.0001C4.99995 7.58589 5.33573 7.2501 5.74994 7.2501H14.2499L14.3271 7.25401ZM2.3144 7.44639C2.27314 7.71905 2.01877 7.90706 1.74604 7.86631C1.47298 7.82524 1.28408 7.57004 1.32514 7.29697L2.3144 7.44639ZM2.47358 2.05967C2.61617 1.98287 2.78931 1.97945 2.93647 2.05381C3.1047 2.13892 3.21088 2.31155 3.21088 2.5001V5.0001C3.21088 5.27618 2.98694 5.5 2.71088 5.5001C2.43474 5.5001 2.21088 5.27624 2.21088 5.0001V3.47569C1.99945 3.57468 1.74143 3.51548 1.5976 3.32041C1.43383 3.09813 1.48085 2.78501 1.70307 2.62119L2.41401 2.09776L2.47358 2.05967ZM14.3271 3.00401C14.7051 3.04263 14.9999 3.36194 14.9999 3.7501C14.9999 4.13826 14.7051 4.45757 14.3271 4.49619L14.2499 4.5001H5.74994C5.33573 4.5001 4.99994 4.16431 4.99994 3.7501C4.99995 3.33589 5.33573 3.0001 5.74994 3.0001H14.2499L14.3271 3.00401Z" fill="black"/>
</g>
</svg>
