<svg width="16" height="16" viewBox="0 0 16 16" fill="none" xmlns="http://www.w3.org/2000/svg">
<g id="style=regular, keywords=-">
<path id="icon" fill-rule="evenodd" clip-rule="evenodd" d="M3.58508 11.9652L2.86896 12.1133C1.84421 12.3253 0.845921 11.6519 0.658727 10.6223C0.558379 10.0704 0.712081 9.50269 1.07715 9.07678L2.00012 7.99998L1.07715 6.92319C0.712081 6.49728 0.558379 5.92953 0.658727 5.37762C0.845921 4.34805 1.84421 3.67462 2.86896 3.88664L3.58508 4.0348L3.51518 3.73193C3.25169 2.59011 4.11889 1.5 5.29071 1.5C5.59227 1.5 5.88911 1.57484 6.15462 1.7178L14.4483 6.18365C15.0961 6.53247 15.5001 7.20882 15.5001 7.94459V8.05541C15.5001 8.79118 15.0961 9.46753 14.4483 9.81635L6.15462 14.2822C5.88911 14.4252 5.59227 14.5 5.29071 14.5C4.11889 14.5 3.25169 13.4099 3.51518 12.2681L3.58508 11.9652ZM5.20169 11.6307L4.97677 12.6054C4.93018 12.8072 5.08352 13 5.29071 13C5.34403 13 5.39652 12.9868 5.44347 12.9615L7.06846 12.0865L10.9634 10.4386L5.20169 11.6307ZM10.9633 5.56132L7.06846 3.91351L5.44347 3.03851C5.39652 3.01323 5.34403 3 5.29071 3C5.08351 3 4.93018 3.19275 4.97677 3.39464L5.20168 4.36927L10.9633 5.56132ZM3.139 8.97617L3.97573 7.99998L3.139 7.02379L2.21603 5.947C2.14492 5.86404 2.11499 5.75345 2.13453 5.64595C2.17099 5.4454 2.36544 5.31423 2.56505 5.35553L13.7273 7.66496C13.8862 7.69783 14.0001 7.83775 14.0001 7.99998C14.0001 8.16221 13.8862 8.30213 13.7273 8.335L2.56505 10.6444C2.36544 10.6857 2.17099 10.5546 2.13453 10.354C2.11499 10.2465 2.14492 10.1359 2.21603 10.053L3.139 8.97617Z" fill="black"/>
</g>
</svg>
