<svg width="16" height="16" viewBox="0 0 16 16" fill="none" xmlns="http://www.w3.org/2000/svg">
<g id="style=regular, keywords=-">
<path id="icon" fill-rule="evenodd" clip-rule="evenodd" d="M11.7879 2.97414L8.75 3.40812V7.25003H13.5V4.45906C13.5 3.54623 12.6915 2.84504 11.7879 2.97414ZM13.5 8.75003H8.75V12.5919L11.7879 13.0259C12.6915 13.155 13.5 12.4538 13.5 11.541V8.75003ZM7.25 7.25003V3.6224L3.78787 4.11699C3.04889 4.22256 2.5 4.85544 2.5 5.60192V7.25003H7.25ZM2.5 8.75003H7.25V12.3777L3.78786 11.8831C3.04889 11.7775 2.5 11.1446 2.5 10.3981V8.75003ZM3.57574 2.63207C2.09779 2.8432 1 4.10897 1 5.60192V10.3981C1 11.8911 2.09779 13.1569 3.57573 13.368L11.5757 14.5109C13.383 14.769 15 13.3666 15 11.541V4.45906C15 2.63341 13.383 1.23103 11.5757 1.48921L3.57574 2.63207Z" fill="black"/>
</g>
</svg>
