<svg width="16" height="16" viewBox="0 0 16 16" fill="none" xmlns="http://www.w3.org/2000/svg">
<g id="style=regular, keywords=-">
<path id="icon" fill-rule="evenodd" clip-rule="evenodd" d="M14.2501 15C13.8358 15 13.5001 14.6642 13.5001 14.25L13.5001 1.75C13.5001 1.33579 13.8358 1 14.2501 1C14.6643 1 15.0001 1.33579 15.0001 1.75L15.0001 14.25C15.0001 14.6642 14.6643 15 14.2501 15ZM11 9L11 7C11 6.44771 10.5523 6 9.99999 6L5.99998 6C5.44769 6 4.99997 6.44771 4.99997 7L4.99997 9C4.99997 9.55228 5.44769 10 5.99998 10L9.99999 10C10.5523 10 11 9.55228 11 9ZM12.5 7C12.5 5.61928 11.3807 4.5 9.99999 4.5L5.99998 4.5C4.61926 4.5 3.49997 5.61928 3.49997 7L3.49997 9C3.49997 10.3807 4.61926 11.5 5.99998 11.5L9.99999 11.5C11.3807 11.5 12.5 10.3807 12.5 9L12.5 7ZM1.00001 14.25C1.00001 14.6642 1.3358 15 1.75001 15C2.16423 15 2.50001 14.6642 2.50001 14.25L2.50001 1.75C2.50001 1.33579 2.16423 1 1.75001 1C1.3358 1 1.00001 1.33579 1.00001 1.75L1.00001 14.25Z" fill="black"/>
</g>
</svg>
