<svg width="16" height="16" viewBox="0 0 16 16" fill="none" xmlns="http://www.w3.org/2000/svg">
<g id="style=regular, keywords=-">
<path id="icon" fill-rule="evenodd" clip-rule="evenodd" d="M13.9833 0.842856C14.0701 1.24787 13.8121 1.64656 13.4071 1.73335L8.74998 2.73131V13H11.25C11.6642 13 12 13.3358 12 13.75C12 14.1642 11.6642 14.5 11.25 14.5H8.00119C8.00079 14.5 8.00038 14.5 7.99998 14.5C7.99958 14.5 7.99917 14.5 7.99877 14.5H4.74998C4.33577 14.5 3.99998 14.1642 3.99998 13.75C3.99998 13.3358 4.33577 13 4.74998 13H7.24998V3.05274L2.90713 3.98335C2.50211 4.07014 2.10342 3.81217 2.01663 3.40715C1.92984 3.00213 2.18781 2.60344 2.59283 2.51665L13.0928 0.266651C13.4979 0.179861 13.8965 0.437837 13.9833 0.842856ZM11.6428 7.56835L11.6499 7.58598C11.8707 8.13802 12.4054 8.50002 13 8.50002C13.5945 8.50002 14.1292 8.13802 14.35 7.58598L14.3571 7.56835L13 4.85412L11.6428 7.56835ZM13 3.00002C12.5403 3.00002 12.1201 3.25971 11.9145 3.67083L10.2008 7.09836C10.073 7.35384 10.0607 7.65175 10.1667 7.91696L10.2572 8.14306C10.7058 9.2646 11.792 10 13 10C14.2079 10 15.2941 9.2646 15.7427 8.14306L15.8332 7.91696C15.9393 7.65175 15.9269 7.35384 15.7991 7.09836L14.0854 3.67084C13.8798 3.25971 13.4596 3.00002 13 3.00002ZM1.64284 9.56835L1.64989 9.58598C1.87071 10.138 2.40539 10.5 2.99996 10.5C3.59453 10.5 4.12921 10.138 4.35003 9.58598L4.35708 9.56835L2.99996 6.85412L1.64284 9.56835ZM2.99996 5.00001C2.54031 5.00001 2.12011 5.25971 1.91455 5.67083L0.200788 9.09836C0.0730469 9.35384 0.0606554 9.65175 0.166739 9.91696L0.257178 10.1431C0.705793 11.2646 1.79203 12 2.99996 12C4.20789 12 5.29413 11.2646 5.74274 10.1431L5.83318 9.91696C5.93926 9.65175 5.92687 9.35384 5.79913 9.09836L4.08537 5.67084C3.87981 5.25971 3.45961 5.00001 2.99996 5.00001Z" fill="black"/>
</g>
</svg>
