<svg width="16" height="16" viewBox="0 0 16 16" fill="none" xmlns="http://www.w3.org/2000/svg">
<g id="style=regular, aliases=-" clip-path="url(#clip0_11_5597)">
<path id="icon" fill-rule="evenodd" clip-rule="evenodd" d="M5.51483 3.5H6.13615L6.57549 3.06066L7.64656 1.98959C7.84182 1.79432 8.15841 1.79432 8.35367 1.98959L9.42475 3.06066L9.86409 3.5H10.4854H12.0001C12.2763 3.5 12.5001 3.72386 12.5001 4V5.51471V6.13603L12.9395 6.57537L14.0105 7.64644C14.2058 7.8417 14.2058 8.15828 14.0105 8.35355L12.9395 9.42461L12.5001 9.86395V10.4853V12C12.5001 12.2761 12.2763 12.5 12.0001 12.5H10.4854H9.86407L9.42473 12.9393L8.35367 14.0104C8.15841 14.2057 7.84182 14.2057 7.64656 14.0104L6.5755 12.9393L6.13616 12.5H5.51484H4.00012C3.72397 12.5 3.50012 12.2761 3.50012 12V10.4853V9.86396L3.06078 9.42461L1.98971 8.35355C1.79445 8.15828 1.79445 7.8417 1.98971 7.64644L3.06078 6.57537L3.50012 6.13603V5.51471V4C3.50012 3.72386 3.72397 3.5 4.00012 3.5H5.51483ZM9.41433 0.928926C8.63328 0.147877 7.36695 0.147878 6.5859 0.928926L5.51483 2H4.00012C2.89555 2 2.00012 2.89543 2.00012 4V5.51471L0.929048 6.58578C0.148 7.36683 0.148 8.63316 0.929048 9.41421L2.00012 10.4853V12C2.00012 13.1046 2.89555 14 4.00012 14H5.51484L6.5859 15.0711C7.36695 15.8521 8.63328 15.8521 9.41433 15.0711L10.4854 14H12.0001C13.1047 14 14.0001 13.1046 14.0001 12V10.4853L15.0712 9.41421C15.8522 8.63316 15.8522 7.36683 15.0712 6.58578L14.0001 5.51471V4C14.0001 2.89543 13.1047 2 12.0001 2H10.4854L9.41433 0.928926ZM6.53045 10.5303L10.5305 6.53033C10.8233 6.23744 10.8233 5.76256 10.5305 5.46967C10.2376 5.17678 9.76269 5.17678 9.46979 5.46967L5.46979 9.46967C5.1769 9.76256 5.1769 10.2374 5.46979 10.5303C5.76269 10.8232 6.23756 10.8232 6.53045 10.5303ZM11.0001 10C11.0001 10.5523 10.5524 11 10.0001 11C9.44784 11 9.00012 10.5523 9.00012 10C9.00012 9.44771 9.44784 9 10.0001 9C10.5524 9 11.0001 9.44771 11.0001 10ZM6.00012 7C6.55241 7 7.00012 6.55228 7.00012 6C7.00012 5.44772 6.55241 5 6.00012 5C5.44784 5 5.00012 5.44772 5.00012 6C5.00012 6.55228 5.44784 7 6.00012 7Z" fill="black"/>
</g>
<defs>
<clipPath id="clip0_11_5597">
<rect width="16" height="16" fill="white"/>
</clipPath>
</defs>
</svg>
