<svg width="16" height="16" viewBox="0 0 16 16" fill="none" xmlns="http://www.w3.org/2000/svg">
<g id="style=regular, aliases=-" clip-path="url(#clip0_11_5707)">
<path id="icon" d="M4.17969 8.25458C6.02914 8.34812 7.49995 9.87701 7.5 11.7497L7.49512 11.9294C7.40158 13.7789 5.87273 15.2497 4 15.2497L3.82031 15.2448C2.03035 15.1543 0.595411 13.7193 0.504883 11.9294L0.5 11.7497C0.500047 9.81674 2.06703 8.2497 4 8.2497L4.17969 8.25458ZM14.3779 8.50653C15.0081 8.57062 15.5 9.10258 15.5 9.7497V13.7497L15.4932 13.8776C15.4334 14.4658 14.9661 14.933 14.3779 14.9929L14.25 14.9997H10.25L10.1221 14.9929C9.53391 14.933 9.06664 14.4658 9.00684 13.8776L9 13.7497V9.7497C9.00004 9.10258 9.49186 8.57062 10.1221 8.50653L10.25 8.4997H14.25L14.3779 8.50653ZM4 9.7497C2.89546 9.7497 2.00005 10.6452 2 11.7497C2 12.8543 2.89543 13.7497 4 13.7497C5.10457 13.7497 6 12.8543 6 11.7497C5.99995 10.6452 5.10454 9.7497 4 9.7497ZM10.5 13.4997H14V9.9997H10.5V13.4997ZM6.90918 0.952822C7.38613 0.0994545 8.61357 0.098827 9.09082 0.951846L11.7109 5.64032C12.1471 6.42146 11.6449 7.37231 10.7939 7.48798L10.6191 7.4997H5.38086L5.20605 7.48798C4.35512 7.37231 3.8529 6.42146 4.28906 5.64032L6.90918 0.952822ZM5.80664 5.9997H10.1934L8 2.07392L5.80664 5.9997Z" fill="black"/>
</g>
<defs>
<clipPath id="clip0_11_5707">
<rect width="16" height="16" fill="white"/>
</clipPath>
</defs>
</svg>
