<svg width="16" height="16" viewBox="0 0 16 16" fill="none" xmlns="http://www.w3.org/2000/svg">
<g id="style=regular, aliases=-" clip-path="url(#clip0_11_5719)">
<path id="icon" fill-rule="evenodd" clip-rule="evenodd" d="M6.19344 6.00003L4 2.07492L1.80656 6.00003L6.19344 6.00003ZM5.09118 0.952661C4.61415 0.0990303 3.38585 0.0990322 2.90882 0.952663L0.289291 5.64025C-0.176327 6.47346 0.425986 7.50003 1.38047 7.50003L6.61954 7.50003C7.57402 7.50003 8.17634 6.47346 7.71072 5.64025L5.09118 0.952661ZM2.53437 14.9293C2.9802 15.1352 3.47669 15.25 4 15.25C5.40969 15.25 6.62472 14.4166 7.17928 13.2157C7.38515 12.7698 7.5 12.2733 7.5 11.75C7.5 9.81703 5.933 8.25003 4 8.25003C2.06701 8.25003 0.500004 9.81703 0.500004 11.75C0.500004 13.1597 1.3334 14.3747 2.53437 14.9293ZM4 13.75C5.10457 13.75 6 12.8546 6 11.75C6 10.6455 5.10457 9.75003 4 9.75003C2.89543 9.75003 2 10.6455 2 11.75C2 12.8546 2.89543 13.75 4 13.75ZM15.2803 1.2197C15.5732 1.51259 15.5732 1.98746 15.2803 2.28036L10.2803 7.28036C9.98744 7.57325 9.51257 7.57325 9.21967 7.28036C8.92678 6.98746 8.92678 6.51259 9.21967 6.2197L14.2197 1.2197C14.5126 0.926803 14.9874 0.926803 15.2803 1.2197ZM10.25 13.25V9.75003H13.75V13.25H10.25ZM8.75 9.50003C8.75 8.80967 9.30965 8.25003 10 8.25003H14C14.6904 8.25003 15.25 8.80967 15.25 9.50003V13.5C15.25 14.1904 14.6904 14.75 14 14.75H10C9.30965 14.75 8.75 14.1904 8.75 13.5V9.50003Z" fill="black"/>
</g>
<defs>
<clipPath id="clip0_11_5719">
<rect width="16" height="16" fill="white"/>
</clipPath>
</defs>
</svg>
