<svg width="16" height="16" viewBox="0 0 16 16" fill="none" xmlns="http://www.w3.org/2000/svg">
<g id="style=regular, keywords=basket food">
<path id="icon" fill-rule="evenodd" clip-rule="evenodd" d="M3.0177 3.06819L3.39452 4.5L4.58023 9.00535C5.05821 10.8215 7.06847 11.757 8.76572 10.953L13.284 8.81273C14.3318 8.31642 14.9998 7.26085 14.9998 6.10152V5C14.9998 3.89543 14.1043 3 12.9998 3H4.55556L4.40686 2.46471C4.16641 1.59907 3.37824 1 2.47983 1H0.75C0.335787 1 0 1.33579 0 1.75C0 2.16421 0.335787 2.5 0.75 2.5H2.47983C2.70443 2.5 2.90147 2.64977 2.96159 2.86618L3.0177 3.06819ZM8.12358 9.59742L12.6419 7.45712C13.1658 7.20897 13.4998 6.68119 13.4998 6.10152V5C13.4998 4.72386 13.2759 4.5 12.9998 4.5H4.9456L6.03083 8.62359C6.26982 9.53168 7.27495 9.99941 8.12358 9.59742ZM12 14.75C12.9665 14.75 13.75 13.9665 13.75 13C13.75 12.0335 12.9665 11.25 12 11.25C11.0335 11.25 10.25 12.0335 10.25 13C10.25 13.9665 11.0335 14.75 12 14.75ZM4.75 13C4.75 13.9665 3.9665 14.75 3 14.75C2.0335 14.75 1.25 13.9665 1.25 13C1.25 12.0335 2.0335 11.25 3 11.25C3.9665 11.25 4.75 12.0335 4.75 13Z" fill="black"/>
</g>
</svg>
