<svg width="16" height="16" viewBox="0 0 16 16" fill="none" xmlns="http://www.w3.org/2000/svg">
<g id="style=regular, aliases=-">
<path id="icon" fill-rule="evenodd" clip-rule="evenodd" d="M3.2612 2.18644C3.59801 1.91157 4.08973 2.03201 4.30542 2.40947C4.50179 2.75311 4.39587 3.18643 4.09546 3.44412C2.81269 4.54453 2 6.17735 2 7.99999C2 9.82262 2.81269 11.4554 4.09546 12.5558C4.39587 12.8135 4.50179 13.2469 4.30542 13.5905C4.08973 13.968 3.59801 14.0884 3.2612 13.8135C1.57601 12.4382 0.5 10.3448 0.5 7.99999C0.5 5.65521 1.57602 3.56174 3.2612 2.18644ZM11.6946 2.40947C11.4982 2.75311 11.6041 3.18643 11.9045 3.44412C13.1873 4.54453 14 6.17735 14 7.99999C14 9.82262 13.1873 11.4554 11.9045 12.5558C11.6041 12.8135 11.4982 13.2469 11.6946 13.5905C11.9103 13.968 12.402 14.0884 12.7388 13.8135C14.424 12.4382 15.5 10.3448 15.5 7.99999C15.5 5.65521 14.424 3.56174 12.7388 2.18644C12.402 1.91157 11.9103 2.03201 11.6946 2.40947ZM4.75934 4.87778C5.0743 4.55095 5.59578 4.66761 5.82098 5.0617C6.0101 5.39267 5.91847 5.80642 5.67706 6.10143C5.25389 6.61859 5 7.27964 5 7.99999C5 8.72034 5.25389 9.38139 5.67706 9.89854C5.91847 10.1936 6.0101 10.6073 5.82098 10.9383C5.59578 11.3324 5.0743 11.449 4.75934 11.1222C3.97955 10.313 3.5 9.2125 3.5 7.99999C3.5 6.78747 3.97955 5.68697 4.75934 4.87778ZM10.179 5.0617C9.9899 5.39267 10.0815 5.80642 10.3229 6.10143C10.7461 6.61859 11 7.27964 11 7.99999C11 8.72034 10.7461 9.38139 10.3229 9.89854C10.0815 10.1936 9.9899 10.6073 10.179 10.9383C10.4042 11.3324 10.9257 11.449 11.2407 11.1222C12.0204 10.313 12.5 9.2125 12.5 7.99999C12.5 6.78747 12.0204 5.68697 11.2407 4.87778C10.9257 4.55095 10.4042 4.66761 10.179 5.0617ZM8 9.5C8.82843 9.5 9.5 8.82843 9.5 8C9.5 7.17157 8.82843 6.5 8 6.5C7.17157 6.5 6.5 7.17157 6.5 8C6.5 8.82843 7.17157 9.5 8 9.5Z" fill="black"/>
</g>
</svg>
