<svg width="16" height="16" viewBox="0 0 16 16" fill="none" xmlns="http://www.w3.org/2000/svg">
<g id="style=regular, keywords=-">
<path id="icon" fill-rule="evenodd" clip-rule="evenodd" d="M3.51334 2.45202C3.90118 2.30658 4.09769 1.87427 3.95225 1.48643C3.80681 1.09859 3.3745 0.902089 2.98666 1.04753L1.95997 1.43254C1.08179 1.76185 0.5 2.60138 0.5 3.53928V6.00026C0.5 8.46283 2.37395 10.4877 4.77361 10.7267C5.01268 13.1262 7.03751 15.0001 9.5 15.0001C12.1234 15.0001 14.25 12.8734 14.25 10.2501V9.88553C15.2643 9.56696 16 8.61939 16 7.49998C16 6.11927 14.8807 4.99998 13.5 4.99998C12.1193 4.99998 11 6.11927 11 7.49998C11 8.61939 11.7357 9.56696 12.75 9.88553V10.2501C12.75 12.045 11.2949 13.5001 9.5 13.5001C7.83697 13.5001 6.46568 12.251 6.27313 10.6398C8.40472 10.1719 10 8.27236 10 6.00026V3.53928C10 2.60138 9.41821 1.76185 8.54003 1.43254L7.51334 1.04753C7.1255 0.902089 6.69319 1.09859 6.54775 1.48643C6.40231 1.87427 6.59882 2.30658 6.98666 2.45202L8.01334 2.83703C8.30607 2.9468 8.5 3.22664 8.5 3.53928V6.00026C8.5 7.79519 7.04493 9.25026 5.25 9.25026C3.45507 9.25026 2 7.79519 2 6.00026V3.53928C2 3.22664 2.19393 2.9468 2.48666 2.83703L3.51334 2.45202ZM13.5 8.49998C14.0523 8.49998 14.5 8.05226 14.5 7.49998C14.5 6.94769 14.0523 6.49998 13.5 6.49998C12.9477 6.49998 12.5 6.94769 12.5 7.49998C12.5 8.05226 12.9477 8.49998 13.5 8.49998Z" fill="black"/>
</g>
</svg>
