<svg width="16" height="16" viewBox="0 0 16 16" fill="none" xmlns="http://www.w3.org/2000/svg">
<g id="style=regular, keywords=text style font format">
<path id="edit" d="M12.75 7.25C13.1642 7.25 13.5 7.58579 13.5 8C13.5 8.38817 13.2051 8.70747 12.8271 8.74609L12.75 8.75H11.5469C11.9721 9.26834 12.25 9.92692 12.25 10.75C12.25 11.9964 11.6386 12.8606 10.7695 13.373C9.94735 13.8576 8.92315 14.0166 8.00879 14.0166C6.44032 14.0165 4.56569 13.4901 3.85352 11.668L3.78809 11.4873L3.76758 11.4131C3.68457 11.0423 3.89448 10.6609 4.2627 10.5381C4.63104 10.4154 5.02759 10.5948 5.18359 10.9414L5.21191 11.0127L5.28418 11.2002C5.68865 12.1018 6.69801 12.5165 8.00879 12.5166C8.78578 12.5166 9.5076 12.3758 10.0078 12.0811C10.4611 11.8138 10.75 11.4187 10.75 10.75C10.75 9.76684 9.96576 9.08486 8.77051 8.7627L8.76758 8.76172L8.72461 8.75H3.25C2.83579 8.75 2.5 8.41421 2.5 8C2.5 7.58579 2.83579 7.25 3.25 7.25H12.75ZM7.98438 2C9.56346 2.00012 10.8315 2.50263 11.5371 3.67188L11.6709 3.91504L11.7012 3.98535C11.8357 4.34067 11.6821 4.74724 11.335 4.9209C10.9878 5.09411 10.5706 4.97307 10.3672 4.65234L10.3291 4.58496L10.2637 4.46484C9.91458 3.87662 9.24703 3.50011 7.98438 3.5C7.37306 3.50004 6.79263 3.67103 6.38672 3.96777C6.00331 4.24831 5.75988 4.64625 5.75977 5.20898C5.75977 5.61273 5.92631 5.96806 6.22461 6.25H4.4502C4.33066 5.93828 4.25977 5.5923 4.25977 5.20898C4.25989 4.12544 4.76726 3.29409 5.50195 2.75684C6.21455 2.23586 7.12246 2.00004 7.98438 2Z" fill="black"/>
<path id="icon" fill-rule="evenodd" clip-rule="evenodd" d="M5.50174 2.75676C6.21443 2.23566 7.12196 2.00012 7.98401 2.00012C9.66868 2.00012 10.9993 2.57165 11.6708 3.91471C11.8561 4.2852 11.7059 4.7357 11.3354 4.92094C10.9649 5.10618 10.5144 4.95602 10.3292 4.58553C10.0007 3.9286 9.33132 3.50012 7.98401 3.50012C7.37255 3.50012 6.79306 3.67077 6.3871 3.96761C6.0033 4.24824 5.75996 4.6463 5.75996 5.2095C5.75996 5.61275 5.9251 5.96841 6.22265 6.25012H4.44652C4.3274 5.93877 4.25996 5.59216 4.25996 5.2095C4.25996 4.1257 4.76689 3.29408 5.50174 2.75676ZM11.5494 8.75012H12.75C13.1642 8.75012 13.5 8.41434 13.5 8.00012C13.5 7.58591 13.1642 7.25012 12.75 7.25012H3.25C2.83579 7.25012 2.5 7.58591 2.5 8.00012C2.5 8.41434 2.83579 8.75012 3.25 8.75012H8.72456L8.76752 8.76186L8.77004 8.76254C9.96568 9.08463 10.75 9.76677 10.75 10.7501C10.75 11.4189 10.4614 11.8135 10.008 12.0808C9.50773 12.3757 8.78619 12.5172 8.00889 12.5172C6.61033 12.5172 5.55539 12.0446 5.21151 11.013C5.08053 10.62 4.65579 10.4076 4.26283 10.5386C3.86987 10.6696 3.6575 11.0943 3.78849 11.4873C4.44461 13.4557 6.38967 14.0172 8.00889 14.0172C8.92347 14.0172 9.94749 13.8577 10.7698 13.3729C11.639 12.8605 12.25 11.9965 12.25 10.7501C12.25 9.92779 11.9737 9.26859 11.5494 8.75012Z" fill="black"/>
</g>
</svg>
