<svg width="16" height="16" viewBox="0 0 16 16" fill="none" xmlns="http://www.w3.org/2000/svg">
<g id="style=fill, keywords=like finger arm">
<path id="icon" fill-rule="evenodd" clip-rule="evenodd" d="M7.1006 1.68472C7.34794 1.26072 7.80187 1 8.29274 1C9.17141 1 9.82636 1.81017 9.64226 2.66933L8.92854 6H9.49997H12.8687C14.1913 6 15.1497 7.26089 14.7957 8.53528L13.9174 11.6975C13.3895 13.598 11.5549 14.83 9.59594 14.5995L4.50003 14L3.99997 7L7.1006 1.68472ZM2.74807 7.44656C2.71855 7.0334 2.3597 6.72239 1.94654 6.75191C1.53337 6.78142 1.22237 7.14027 1.25188 7.55344L1.75188 14.5534C1.78139 14.9666 2.14025 15.2776 2.55341 15.2481C2.96657 15.2186 3.27758 14.8597 3.24807 14.4466L2.74807 7.44656Z" fill="black"/>
</g>
</svg>
