<svg width="16" height="16" viewBox="0 0 16 16" fill="none" xmlns="http://www.w3.org/2000/svg">
<g id="style=regular, keywords=like finger arm">
<path id="icon" fill-rule="evenodd" clip-rule="evenodd" d="M3.99997 7L6.94082 1.95864C7.2871 1.36502 7.92262 1 8.60985 1C9.84001 1 10.757 2.13427 10.4992 3.33712L10.25 4.5L9.9286 6H11.4627H12.8687C14.1913 6 15.1497 7.26089 14.7957 8.53528L13.9174 11.6975C13.3895 13.598 11.5549 14.83 9.59594 14.5995L4.50003 14L3.99997 7ZM9.7712 13.1098L5.90779 12.6553L5.52919 7.35545L8.23648 2.71445C8.31395 2.58166 8.45611 2.5 8.60985 2.5C8.88505 2.5 9.09018 2.75374 9.03252 3.02283L8.4619 5.68571L8.07312 7.5H9.9286H12.8687C13.1994 7.5 13.439 7.81522 13.3505 8.13382L12.4721 11.296C12.1422 12.4838 10.9956 13.2538 9.7712 13.1098ZM2.74807 7.44656C2.71855 7.0334 2.3597 6.72239 1.94654 6.75191C1.53337 6.78142 1.22237 7.14027 1.25188 7.55344L1.75188 14.5534C1.78139 14.9666 2.14025 15.2776 2.55341 15.2481C2.96657 15.2186 3.27758 14.8597 3.24807 14.4466L2.74807 7.44656Z" fill="black"/>
</g>
</svg>
