<svg width="16" height="16" viewBox="0 0 16 16" fill="none" xmlns="http://www.w3.org/2000/svg">
<g id="style=regular, aliases=-" clip-path="url(#clip0_11_5688)">
<path id="icon" fill-rule="evenodd" clip-rule="evenodd" d="M11.0911 2.31841C11.4731 2.60492 11.5825 3.10796 11.397 3.51509C11.3595 3.59755 11.3098 3.67608 11.2479 3.74808C11.2316 3.76696 11.2146 3.7854 11.1966 3.80334L10.9999 4.00004C10.7238 4.27618 10.7238 4.72389 10.9999 5.00004C11.2761 5.27618 11.7238 5.27618 11.9999 5.00004L12.1966 4.80334C12.2146 4.7854 12.233 4.76831 12.2519 4.75207C12.3239 4.69013 12.4024 4.64047 12.4849 4.60291C12.892 4.41748 13.395 4.52687 13.6815 4.90887L14.925 6.56681C15.4999 7.33331 15.2853 8.42882 14.4637 8.92177C12.1895 10.2863 10.2862 12.1896 8.92165 14.4638C8.4287 15.2854 7.33318 15.5 6.56669 14.9251L4.90875 13.6817C4.52674 13.3952 4.41736 12.8921 4.60279 12.485C4.64035 12.4025 4.69001 12.324 4.75195 12.252C4.76819 12.2331 4.78528 12.2147 4.80322 12.1967L4.99991 12C5.27606 11.7239 5.27606 11.2762 4.99992 11C4.72377 10.7239 4.27606 10.7239 3.99991 11L3.80322 11.1967C3.78528 11.2147 3.76684 11.2318 3.74796 11.248C3.67596 11.3099 3.59743 11.3596 3.51496 11.3972C3.10784 11.5826 2.60479 11.4732 2.31829 11.0912L1.07484 9.43327C0.499963 8.66677 0.714561 7.57125 1.53614 7.0783C3.81033 5.71379 5.71367 3.81045 7.07818 1.53627C7.57113 0.714683 8.66665 0.500085 9.43314 1.07496L11.0911 2.31841ZM8.53314 2.27496L9.73401 3.1756C9.08384 4.04023 9.15226 5.2737 9.93925 6.0607C10.7263 6.84769 11.9597 6.91611 12.8243 6.26594L13.725 7.46681C13.7662 7.52173 13.7508 7.60022 13.6919 7.63553C11.2066 9.12672 9.1266 11.2068 7.63541 13.6921C7.60009 13.7509 7.5216 13.7663 7.46669 13.7251L6.26582 12.8245C6.91599 11.9598 6.84758 10.7264 6.06057 9.93937C5.27358 9.15238 4.04011 9.08396 3.17548 9.73413L2.27484 8.53327C2.23365 8.47835 2.24902 8.39986 2.30789 8.36454C4.7932 6.87335 6.87323 4.79332 8.36442 2.30801C8.39974 2.24915 8.47823 2.23377 8.53314 2.27496ZM7.53025 6.46971C7.23735 6.17681 6.76248 6.17681 6.46958 6.46971C6.17669 6.7626 6.17669 7.23747 6.46958 7.53037L8.46958 9.53037C8.76248 9.82326 9.23735 9.82326 9.53024 9.53037C9.82314 9.23747 9.82314 8.7626 9.53024 8.46971L7.53025 6.46971Z" fill="black"/>
</g>
<defs>
<clipPath id="clip0_11_5688">
<rect width="16" height="16" fill="white"/>
</clipPath>
</defs>
</svg>
