<svg width="16" height="16" viewBox="0 0 16 16" fill="none" xmlns="http://www.w3.org/2000/svg">
<g id="style=regular, keywords=attention warning">
<path id="icon" fill-rule="evenodd" clip-rule="evenodd" d="M7.13413 2.99449L2.21716 11.4995C1.83174 12.1662 2.31284 13 3.0829 13L12.9168 13C13.6869 13 14.168 12.1662 13.7826 11.4995L8.8656 2.99449C8.48057 2.32849 7.51915 2.3285 7.13413 2.99449ZM10.1642 2.24374C9.20163 0.578749 6.7981 0.578747 5.83552 2.24374L0.91856 10.7488C-0.0449811 12.4154 1.15775 14.5 3.0829 14.5L12.9168 14.5C14.842 14.5 16.0447 12.4154 15.0812 10.7488L10.1642 2.24374ZM7.99988 5.00003C8.41409 5.00003 8.74988 5.33582 8.74988 5.75003V7.75003C8.74988 8.16424 8.41409 8.50003 7.99988 8.50003C7.58566 8.50003 7.24988 8.16424 7.24988 7.75003V5.75003C7.24988 5.33582 7.58566 5.00003 7.99988 5.00003ZM8.99988 10.75C8.99988 11.3023 8.55216 11.75 7.99988 11.75C7.44759 11.75 6.99988 11.3023 6.99988 10.75C6.99988 10.1977 7.44759 9.75003 7.99988 9.75003C8.55216 9.75003 8.99988 10.1977 8.99988 10.75Z" fill="black"/>
</g>
</svg>
