<svg width="16" height="16" viewBox="0 0 16 16" fill="none" xmlns="http://www.w3.org/2000/svg">
<g id="style=fill, keywords=attention warning">
<path id="icon" fill-rule="evenodd" clip-rule="evenodd" d="M5.83552 2.24374C6.7981 0.578747 9.20163 0.578749 10.1642 2.24374L15.0812 10.7488C16.0447 12.4154 14.842 14.5 12.9168 14.5L3.0829 14.5C1.15775 14.5 -0.0449812 12.4154 0.91856 10.7488L5.83552 2.24374ZM7.99998 5.00002C8.4142 5.00002 8.74998 5.3358 8.74998 5.75002V7.75002C8.74998 8.16423 8.4142 8.50002 7.99998 8.50002C7.58577 8.50002 7.24998 8.16423 7.24998 7.75002V5.75002C7.24998 5.3358 7.58577 5.00002 7.99998 5.00002ZM8.99998 10.75C8.99998 11.3023 8.55227 11.75 7.99998 11.75C7.4477 11.75 6.99998 11.3023 6.99998 10.75C6.99998 10.1977 7.4477 9.75002 7.99998 9.75002C8.55227 9.75002 8.99998 10.1977 8.99998 10.75Z" fill="black"/>
</g>
</svg>
