<svg width="16" height="16" viewBox="0 0 16 16" fill="none" xmlns="http://www.w3.org/2000/svg">
<g id="style=regular, keywords=rain">
<path id="icon" fill-rule="evenodd" clip-rule="evenodd" d="M11.1833 11.5945C11.1336 11.6142 10.8438 11.7066 10.0696 11.4076C9.11725 11.0399 7.81152 10.1901 6.31065 8.68927C4.80979 7.1884 3.96005 5.88269 3.59231 4.93036C3.29348 4.15647 3.38565 3.86654 3.40542 3.81667C4.97571 2.28182 8.58248 1.80436 10.889 4.11084C13.2097 6.4316 12.8034 9.94112 11.1833 11.5945ZM5.78955 10.2711C8.73727 13.0183 11.2173 13.6821 12.2175 12.6819C14.28 10.6195 14.8336 6.53994 12.4527 3.60776L13.0303 3.03018C13.3232 2.73728 13.3232 2.26241 13.0303 1.96952C12.7374 1.67662 12.2625 1.67662 11.9696 1.96952L11.391 2.54816C8.44833 0.177799 4.28611 0.814353 2.31801 2.78245C1.31781 3.78265 1.98168 6.26272 4.72889 9.21048L2.46975 11.4695C1.62453 12.3146 1.6245 13.6849 2.46969 14.5301C3.31486 15.3753 4.68515 15.3753 5.53032 14.5301L5.78033 14.2801C6.07323 13.9872 6.07323 13.5124 5.78033 13.2195C5.48744 12.9266 5.01257 12.9266 4.71967 13.2195L4.46966 13.4695C4.21027 13.7289 3.78973 13.7289 3.53035 13.4695C3.27096 13.2101 3.27097 12.7895 3.53037 12.5302L5.78955 10.2711Z" fill="black"/>
</g>
</svg>
